
<svg width="71px" height="22px" viewBox="0 0 71 22" version="1.1" xmlns="http://www.w3.org/2000/svg" xmlns:xlink="http://www.w3.org/1999/xlink">
    <g id="Page-1" stroke="none" stroke-width="1" fill="none" fill-rule="evenodd">
        <g id="booz">
            <path d="M12.794,8.014 C12.139363,8.71273768 11.4602738,9.38815791 10.758,10.039 L10.758,8.014 L12.794,8.014 Z" id="Path" fill="#FDFDFD"></path>
            <path d="M19.12,7.704 C19.208,7.799 19.287,7.894 19.375,7.99 C19.4589918,8.01941591 19.5203068,8.09222744 19.535,8.18 C19.567,8.244 19.583,8.316 19.647,8.347 C19.783,8.395 19.791,8.53 19.838,8.633 C19.91,8.673 19.934,8.753 19.95,8.823 C19.974,8.975 20.062,9.102 20.142,9.229 C20.302,9.412 20.318,9.443 20.326,9.721 C20.39,9.427 20.39,9.427 20.541,9.229 L20.757,8.824 C20.757,8.578 20.925,8.434 21.077,8.276 C21.117,8.212 21.164,8.156 21.204,8.093 C21.3,7.974 21.34,7.807 21.508,7.76 C21.588,7.744 21.548,7.64 21.619,7.617 C21.699,7.529 21.755,7.418 21.883,7.394 L22.155,7.148 C22.402,6.973 22.634,6.758 22.937,6.679 C23.185,6.417 23.52,6.378 23.84,6.314 L24.91,6.124 C25.086,6.036 25.27,6.044 25.461,6.06 C25.781,6.092 26.108,6.052 26.411,6.187 C26.451,6.195 26.491,6.203 26.523,6.211 C26.5872212,6.19533828 26.6550771,6.21008956 26.707,6.251 C26.723,6.258 26.747,6.258 26.763,6.266 C26.827,6.282 26.891,6.274 26.946,6.314 C27.002,6.378 27.082,6.386 27.162,6.386 C27.258,6.409 27.354,6.417 27.426,6.489 C27.553,6.473 27.593,6.656 27.721,6.616 C27.993,6.703 28.248,6.83 28.488,6.997 C28.568,7.053 28.648,7.117 28.68,7.212 C28.8,7.307 28.92,7.41 29.03,7.505 C29.11,7.545 29.167,7.609 29.215,7.68 C29.335,7.752 29.422,7.87 29.566,7.903 C29.662,7.799 29.662,7.673 29.662,7.545 L29.662,6.592 C29.662,6.449 29.71,6.386 29.854,6.402 C29.925,6.409 29.989,6.402 30.061,6.402 C32.936,6.402 35.811,6.409 38.679,6.394 C38.7095488,6.39338852 38.7394584,6.38513761 38.766,6.37 C38.806,6.401 38.846,6.394 38.886,6.378 C38.958,6.401 38.942,6.441 38.91,6.488 C38.814,6.616 38.71,6.743 38.663,6.902 C38.623,7.124 38.487,7.299 38.319,7.442 C38.295807,7.53789803 38.2390495,7.62232484 38.159,7.68 C37.976,7.95 37.776,8.204 37.632,8.506 C37.632,8.776 37.409,8.935 37.273,9.134 C37.081,9.427 36.953,9.761 36.674,9.991 C36.5998562,10.0563507 36.5469264,10.1423617 36.522,10.238 C36.498,10.309 36.49,10.388 36.394,10.42 C36.331,10.436 36.339,10.484 36.339,10.531 C36.3157224,10.7093847 36.2127257,10.8675582 36.059,10.961 C36.027,11.079 35.875,11.119 35.867,11.262 C35.827,11.382 35.827,11.516 35.676,11.556 C35.5,11.794 35.308,12.032 35.196,12.31 C35.1665441,12.4897404 35.0622418,12.648556 34.909,12.747 C34.877,12.811 34.861,12.89 34.781,12.922 C34.709,12.938 34.725,12.994 34.725,13.042 C34.693,13.136 34.677,13.248 34.565,13.287 L34.494,13.407 C34.51,13.613 34.669,13.517 34.765,13.517 C35.715,13.526 36.674,13.526 37.625,13.526 L37.896,13.526 C38.056,13.534 38.088,13.454 38.04,13.319 C38.016,13.184 37.984,13.057 37.96,12.922 C37.930752,12.8655984 37.9169515,12.802461 37.92,12.739 C37.910684,12.6412574 37.9053462,12.5431764 37.904,12.445 C37.8721304,12.2080669 37.8721304,11.9679331 37.904,11.731 C37.936,11.516 37.904,11.286 37.984,11.079 C38,10.754 38.04,10.436 38.264,10.182 C38.287,10.126 38.311,10.079 38.335,10.023 C38.439,9.705 38.527,9.388 38.822,9.181 C38.902,9.046 38.934,8.879 39.094,8.808 L39.469,8.387 C39.525,8.323 39.573,8.252 39.653,8.22 C39.677,8.117 39.749,8.077 39.837,8.045 C39.94,7.918 40.044,7.807 40.197,7.744 C40.252,7.696 40.307,7.656 40.364,7.609 C40.404,7.569 40.428,7.513 40.492,7.521 C40.508,7.513 40.524,7.497 40.547,7.49 C40.627,7.362 40.747,7.283 40.875,7.204 C40.987,7.132 41.051,7.053 40.971,6.918 C40.947,6.894 40.931,6.87 40.907,6.846 C40.867,6.751 40.739,6.703 40.739,6.584 C40.715,6.552 40.683,6.521 40.659,6.489 C40.563,6.433 40.524,6.338 40.508,6.235 C40.42,6.187 40.404,6.1 40.364,6.02 C40.324,5.94 40.284,5.853 40.244,5.774 C40.004,5.496 39.901,5.17 39.893,4.805 C39.885,4.773 39.885,4.734 39.877,4.702 C39.829,4.622 39.877,4.519 39.829,4.44 C39.773,4.313 39.789,4.178 39.813,4.043 C39.7849485,3.92531517 39.7849485,3.80268483 39.813,3.685 C39.781,3.36 39.853,3.058 39.956,2.748 C39.98,2.661 39.933,2.542 40.052,2.486 C40.092,2.422 40.036,2.335 40.124,2.287 C40.156,2.216 40.18,2.137 40.236,2.073 L40.308,1.953 C40.404,1.652 40.588,1.413 40.851,1.239 L40.907,1.183 C40.939,1.112 41.035,1.12 41.083,1.056 L41.091,1.056 C41.258,0.89 41.41,0.706 41.658,0.651 C41.674,0.659 41.69,0.651 41.69,0.635 C41.721,0.548 41.81,0.548 41.881,0.525 C42.153,0.365 42.464,0.294 42.768,0.215 C42.935,0.095 43.128,0.135 43.311,0.111 L44.325,0.111 C44.453,0.175 44.621,0.056 44.74,0.191 C44.884,0.222 45.012,0.294 45.164,0.278 C45.267,0.302 45.379,0.318 45.467,0.389 C45.523,0.413 45.587,0.437 45.643,0.461 C45.675,0.492 45.739,0.477 45.763,0.532 C45.787,0.596 45.835,0.58 45.883,0.58 C45.994,0.627 46.138,0.612 46.178,0.762 C46.338,0.882 46.473,1.04 46.658,1.128 C46.769,1.128 46.801,1.208 46.833,1.295 C46.945,1.43 47.048,1.565 47.16,1.708 C47.264,1.787 47.328,1.89 47.36,2.018 L47.456,2.184 C47.592,2.271 47.6,2.414 47.624,2.557 C47.616,2.645 47.631,2.724 47.695,2.78 C47.719,2.835 47.783,2.883 47.751,2.955 C47.751,2.978 47.759,2.995 47.759,3.018 C47.847,3.217 47.855,3.423 47.863,3.638 L47.863,4.384 C47.839,4.464 47.879,4.551 47.823,4.622 C47.823,4.638 47.823,4.662 47.815,4.678 C47.839,4.765 47.791,4.837 47.759,4.916 C47.743,4.932 47.735,4.948 47.751,4.964 C47.711,5.019 47.775,5.114 47.679,5.147 C47.608,5.187 47.639,5.257 47.624,5.313 C47.6105322,5.50343499 47.517632,5.67943724 47.368,5.798 C47.352,5.822 47.344,5.845 47.328,5.861 C47.272,6.004 47.248,6.155 47.08,6.219 C46.993,6.282 46.913,6.338 46.889,6.457 C46.889,6.577 46.793,6.6 46.721,6.64 L46.665,6.695 C46.609,6.846 46.513,6.957 46.345,6.997 C46.314,7.029 46.282,7.053 46.25,7.084 C46.21,7.116 46.178,7.164 46.13,7.18 C46.066,7.188 46.034,7.235 46.002,7.283 C45.978,7.339 45.954,7.394 45.874,7.386 C45.858,7.402 45.843,7.41 45.827,7.426 C45.771,7.49 45.731,7.569 45.627,7.585 C45.539,7.577 45.499,7.64 45.459,7.704 C45.419,7.815 45.259,7.871 45.339,8.022 C45.331,8.132 45.427,8.172 45.483,8.244 C45.555,8.284 45.627,8.331 45.619,8.434 C45.627,8.451 45.643,8.466 45.651,8.482 C45.747,8.538 45.787,8.625 45.819,8.721 C45.97,8.864 46.122,9.006 46.17,9.221 C46.234,9.371 46.33,9.507 46.45,9.618 C46.5864054,9.69581953 46.6823519,9.82897724 46.713,9.983 C46.721,10.103 46.817,10.158 46.889,10.23 C46.953,10.238 46.929,10.301 46.953,10.333 C46.985,10.428 47.033,10.508 47.12,10.571 C47.208,10.603 47.248,10.658 47.248,10.746 C47.256,10.865 47.344,10.921 47.416,10.984 C47.528,11.079 47.656,11.167 47.663,11.342 C47.671,11.421 47.711,11.484 47.783,11.524 C47.895,11.54 47.887,11.635 47.911,11.707 C47.943,11.802 47.991,11.89 48.079,11.945 C48.183,12.048 48.302,12.144 48.334,12.303 C48.358,12.343 48.382,12.374 48.406,12.413 C48.678,12.636 48.846,12.93 48.989,13.248 C49.349,13.549 49.54,13.97 49.812,14.328 C49.94,14.487 50.083,14.645 50.123,14.86 C50.139,14.884 50.147,14.9 50.163,14.923 C50.323,14.987 50.363,15.146 50.427,15.281 C50.451,15.321 50.475,15.352 50.499,15.392 C50.555,15.416 50.594,15.456 50.587,15.519 C50.618,15.639 50.714,15.718 50.787,15.813 C50.977,15.884 51.034,16.059 51.09,16.233 C51.082,16.369 50.978,16.321 50.914,16.321 C49.876,16.337 48.829,16.305 47.791,16.337 C47.655,16.345 47.568,16.282 47.511,16.162 C47.391,16.122 47.368,16.004 47.336,15.908 C47.104,15.67 46.976,15.344 46.729,15.114 C46.6441011,15.2466761 46.5174379,15.347303 46.369,15.4 C46.346,15.416 46.329,15.432 46.306,15.448 C46.2664371,15.5488557 46.1737895,15.6191135 46.066,15.63 C45.89,15.71 45.731,15.813 45.595,15.948 C45.547,16.004 45.491,16.043 45.411,16.035 C45.211,16.123 45.02,16.218 44.821,16.305 C44.716,16.465 44.549,16.448 44.389,16.465 C44.277,16.432 44.205,16.535 44.101,16.535 C43.95,16.671 43.758,16.591 43.591,16.639 L43.263,16.663 C43.151,16.695 43.039,16.655 42.927,16.703 C42.911,16.671 42.896,16.671 42.872,16.703 C42.584,16.631 42.289,16.71 42.001,16.655 C41.849,16.591 41.666,16.703 41.521,16.583 C41.386,16.599 41.258,16.583 41.162,16.48 C41.082,16.464 40.995,16.472 40.922,16.409 C40.699,16.361 40.476,16.329 40.324,16.123 C40.308,16.115 40.292,16.107 40.268,16.091 C40.204,16.099 40.18,16.043 40.14,16.011 C40.124,16.004 40.1,15.996 40.084,15.988 C39.988,15.948 39.884,15.924 39.837,15.821 C39.6857776,15.7328877 39.5483116,15.6230497 39.429,15.495 C39.126,15.424 39.054,15.13 38.879,14.931 C38.862,14.908 38.854,14.876 38.83,14.86 C38.766,14.804 38.735,14.653 38.623,14.693 C38.527,14.725 38.583,14.852 38.575,14.931 C38.567,15.384 38.575,15.837 38.575,16.29 C38.471,16.345 38.359,16.321 38.255,16.321 L29.973,16.321 C29.782,16.321 29.598,16.337 29.406,16.337 C29.326,16.337 29.239,16.353 29.223,16.234 C29.247,16.202 29.271,16.17 29.303,16.139 C29.31,16.051 29.366,15.996 29.423,15.932 C29.4388463,15.9065072 29.4572769,15.882715 29.478,15.861 C29.566,15.583 29.742,15.352 29.893,15.114 C31.115,13.216 32.337,11.326 33.567,9.427 C33.607,9.364 33.695,9.3 33.655,9.221 C33.607,9.118 33.495,9.165 33.415,9.165 L30.692,9.165 C30.365,9.165 30.365,9.173 30.469,9.483 C31.067,11.349 30.828,13.081 29.654,14.677 C29.574,14.781 29.502,14.892 29.366,14.923 C29.159,15.225 28.936,15.495 28.576,15.63 L28.584,15.622 C28.536,15.686 28.472,15.718 28.408,15.749 C28.288,15.861 28.168,15.979 27.993,15.996 C27.881,15.972 27.825,16.067 27.753,16.115 C27.737,16.147 27.713,16.155 27.681,16.147 L27.154,16.361 C26.891,16.591 26.564,16.583 26.244,16.583 C26.172,16.591 26.092,16.591 26.02,16.599 C25.892,16.639 25.764,16.607 25.637,16.639 C25.5082793,16.6071079 25.3737207,16.6071079 25.245,16.639 C25.11,16.615 24.958,16.655 24.822,16.599 C24.646,16.575 24.462,16.544 24.287,16.519 C23.736,16.464 23.217,16.305 22.785,15.948 C22.745,15.916 22.674,15.94 22.65,15.877 C22.565738,15.8385693 22.4896815,15.7842433 22.426,15.717 C22.322,15.702 22.266,15.622 22.194,15.559 C22.019,15.487 21.844,15.4 21.779,15.201 C21.771,15.122 21.675,15.161 21.651,15.106 C21.268,14.804 20.973,14.439 20.813,13.97 C20.773,13.867 20.613,13.812 20.661,13.66 C20.5522179,13.5247 20.4805337,13.3634105 20.453,13.192 C20.421,13.136 20.406,13.057 20.318,13.121 C20.2498418,13.2070023 20.2106381,13.3123623 20.206,13.422 C20.15,13.748 19.974,14.018 19.751,14.264 C19.743,14.28 19.735,14.304 19.719,14.32 C19.719,14.383 19.663,14.407 19.631,14.447 C19.575,14.59 19.399,14.645 19.359,14.797 C19.144,15.162 18.856,15.456 18.457,15.63 C18.337,15.654 18.265,15.75 18.169,15.805 C18.078502,15.9325766 17.9404615,16.0183563 17.786,16.043 L17.77,16.043 L17.762,16.059 C17.682,16.21 17.522,16.186 17.395,16.234 C16.995,16.401 16.556,16.464 16.149,16.599 C15.805,16.695 15.446,16.583 15.094,16.647 L15.087,16.639 L15.071,16.647 C14.951,16.631 14.823,16.639 14.711,16.607 C14.535,16.56 14.351,16.607 14.176,16.536 C14.088,16.464 13.952,16.591 13.873,16.472 C13.777,16.361 13.617,16.464 13.521,16.353 C13.481,16.329 13.425,16.337 13.393,16.305 L13.377,16.29 L13.353,16.297 C13.218,16.257 13.058,16.282 12.978,16.131 C12.922,16.107 12.874,16.083 12.818,16.059 C12.6263425,16.024886 12.4518753,15.9269024 12.323,15.781 C12.227,15.789 12.251,15.646 12.155,15.646 C11.86,15.583 11.732,15.329 11.548,15.13 C11.525,15.106 11.493,15.082 11.468,15.058 C11.3378034,14.9999688 11.2370017,14.8912185 11.189,14.757 C11.141,14.701 11.101,14.637 11.053,14.582 C10.902,14.479 10.838,14.32 10.773,14.161 C10.7073873,14.1141 10.6642692,14.0419949 10.654,13.962 C10.5809658,13.8856571 10.5334438,13.7885166 10.518,13.684 C10.438,13.644 10.422,13.542 10.343,13.51 C10.231,13.605 10.207,13.764 10.095,13.86 C10.039,13.875 10.047,13.93 10.047,13.97 C9.895,14.447 9.607,14.82 9.208,15.114 C9.10979294,15.1690777 9.02720495,15.2482245 8.968,15.344 C8.85501691,15.5564899 8.65861746,15.712305 8.426,15.774 C8.354,15.797 8.29,15.821 8.25,15.884 C8.20851686,15.9469866 8.14100309,15.9880819 8.066,15.996 C8.05,16.004 8.034,16.012 8.01,16.019 C7.939,16.139 7.819,16.155 7.699,16.186 C7.523,16.25 7.348,16.321 7.172,16.385 C7.1,16.512 6.956,16.425 6.86,16.488 L6.509,16.56 C6.405,16.575 6.317,16.615 6.213,16.615 C6.15,16.615 6.093,16.623 6.03,16.623 C5.846,16.663 5.654,16.631 5.463,16.663 C5.439,16.639 5.423,16.639 5.399,16.671 C5.271,16.607 5.127,16.687 5.008,16.623 C4.672,16.607 4.361,16.496 4.049,16.377 C3.84982677,16.3628817 3.66128082,16.2818246 3.514,16.147 C3.482,16.123 3.45,16.099 3.426,16.075 C3.322,16.043 3.211,16.027 3.155,15.916 C3.067,15.861 2.979,15.797 2.859,15.718 L2.859,16.321 C2.619,16.409 2.364,16.337 2.124,16.353 C1.565,16.377 1.014,16.321 0.455,16.377 C0.359,16.385 0.255,16.377 0.175,16.313 L0.184,16.321 C0.12,16.241 0.144,16.147 0.144,16.067 L0.144,1.731 C0.144,1.652 0.128,1.573 0.168,1.501 L0.168,1.263 C0.168,1.16 0.224,1.168 0.288,1.191 C1.102,1.191 1.917,1.215 2.731,1.191 C2.995,1.183 3.059,1.279 3.043,1.501 C3.091,1.604 3.067,1.716 3.067,1.827 L3.067,5.877 C3.067,6.052 3.075,6.235 3.099,6.409 C3.139,6.743 3.163,6.767 3.482,6.632 C3.514,6.568 3.586,6.584 3.642,6.552 C3.69,6.449 3.794,6.465 3.882,6.442 C4.121,6.362 4.361,6.29 4.6,6.211 C4.712,6.1 4.832,6.123 4.968,6.163 C5.263,6.155 5.567,6.155 5.862,6.147 C6.158,6.044 6.437,6.1 6.701,6.267 C6.916,6.33 7.131,6.394 7.356,6.457 C7.427,6.513 7.556,6.449 7.603,6.56 C7.651,6.608 7.707,6.648 7.779,6.632 C7.939,6.679 8.099,6.712 8.202,6.862 C8.322,6.965 8.45,7.061 8.593,7.116 C8.697,7.132 8.745,7.212 8.801,7.291 C8.825,7.371 8.913,7.378 8.969,7.418 C9.209,7.505 9.344,7.696 9.456,7.91 C9.528,8.061 9.632,8.196 9.752,8.308 C9.943,8.411 9.999,8.601 10.055,8.792 C10.055,8.887 10.111,8.959 10.167,9.022 C10.287,9.07 10.263,9.308 10.462,9.252 C10.534,9.157 10.502,9.014 10.598,8.935 C10.646,8.871 10.662,8.785 10.71,8.721 C10.734,8.689 10.758,8.649 10.782,8.617 C10.8144381,8.47005418 10.8959007,8.3385149 11.013,8.244 C11.053,8.196 11.093,8.149 11.133,8.109 C11.197,7.966 11.285,7.839 11.437,7.768 C11.4841129,7.69971107 11.5402944,7.63814689 11.604,7.585 L11.676,7.513 C11.732,7.41 11.788,7.307 11.924,7.315 C11.98,7.267 12.036,7.212 12.092,7.164 C12.187,6.997 12.363,6.957 12.522,6.894 C12.539,6.886 12.555,6.87 12.571,6.862 C12.707,6.679 12.914,6.64 13.114,6.576 C13.242,6.473 13.401,6.449 13.545,6.401 L13.537,6.409 C13.601,6.33 13.689,6.354 13.769,6.33 C13.912,6.306 14.056,6.29 14.192,6.219 C14.352,6.179 14.496,6.076 14.672,6.147 C14.752,6.139 14.831,6.139 14.911,6.131 C15.206,6.052 15.51,6.076 15.805,6.139 L16.101,6.163 C16.173,6.139 16.229,6.171 16.284,6.195 C16.42,6.227 16.564,6.251 16.7,6.282 C16.748,6.282 16.788,6.298 16.828,6.322 C16.891,6.394 16.979,6.402 17.068,6.394 C17.458,6.449 17.802,6.584 18.089,6.862 C18.153,6.918 18.209,6.989 18.305,6.997 C18.457,7.021 18.577,7.077 18.625,7.235 C18.688,7.355 18.816,7.395 18.92,7.465 C19.008,7.49 19.064,7.601 19.12,7.704 Z M70.936,21.603 C70.92,21.857 70.768,21.873 70.553,21.873 C47.216,21.865 23.872,21.865 0.535,21.865 C0.423,21.865 0.319,21.873 0.208,21.873 C0.08,21.849 0.104,21.746 0.104,21.658 C0.128,20.84 0.104,20.022 0.12,19.204 C0.12,19.173 0.136,19.149 0.144,19.117 C0.192,19.006 0.304,19.045 0.384,19.006 C0.504,18.95 0.639,18.958 0.767,18.958 L70.2,18.958 C70.328,18.958 70.464,18.95 70.584,19.006 C70.696,19.046 70.831,18.998 70.944,19.086 C70.879,19.594 70.919,20.11 70.919,20.618 C70.911,20.952 70.871,21.278 70.935,21.603 L70.936,21.603 Z M58.31,14.947 C58.293,14.931 58.278,14.916 58.262,14.892 C57.982,14.662 57.75,14.399 57.655,14.042 C57.1519069,13.1075688 56.9195268,12.0512958 56.984,10.992 C57.024,10.42 57.175,9.872 57.351,9.324 C57.367,9.197 57.399,9.086 57.511,8.999 C57.535,8.943 57.559,8.887 57.591,8.832 C57.615,8.76 57.607,8.672 57.702,8.642 C57.75,8.57 57.79,8.498 57.838,8.427 C57.854,8.347 57.87,8.276 57.958,8.252 C58.078,8.102 58.19,7.95 58.309,7.807 C58.349,7.688 58.453,7.632 58.557,7.577 C58.581,7.474 58.645,7.418 58.749,7.394 C58.876,7.283 58.972,7.132 59.148,7.077 C59.188,6.957 59.292,6.934 59.396,6.91 C59.436,6.886 59.467,6.862 59.507,6.838 C59.6106253,6.7074247 59.7646512,6.62677903 59.931,6.616 C59.947,6.608 59.971,6.608 59.987,6.6 C60.114,6.401 60.338,6.425 60.53,6.378 C60.69,6.338 60.85,6.29 61.009,6.251 C61.065,6.227 61.121,6.195 61.193,6.203 L61.376,6.179 C61.48,6.187 61.56,6.076 61.672,6.131 C61.736,6.131 61.792,6.123 61.855,6.123 C62.175,6.044 62.495,6.092 62.814,6.131 C62.886,6.139 62.958,6.139 63.029,6.147 C63.093,6.163 63.173,6.147 63.229,6.187 C63.429,6.227 63.629,6.274 63.829,6.314 C64.036,6.378 64.275,6.346 64.427,6.544 C64.515,6.608 64.603,6.679 64.723,6.679 C64.883,6.727 65.066,6.735 65.138,6.926 C65.25,7.021 65.362,7.108 65.498,7.164 C65.529,7.172 65.545,7.196 65.561,7.219 C65.601,7.323 65.713,7.355 65.801,7.402 C65.937,7.418 66.001,7.522 66.041,7.632 C66.112,7.752 66.216,7.847 66.32,7.934 C66.671,8.244 66.935,8.609 67.063,9.062 C67.055,9.182 67.127,9.269 67.19,9.356 C67.262,9.443 67.262,9.555 67.302,9.658 C67.294,9.808 67.358,9.944 67.422,10.071 C67.566,10.253 67.494,10.468 67.534,10.666 C67.542,10.786 67.55,10.905 67.55,11.024 C67.582,11.262 67.582,11.5 67.55,11.739 C67.526,11.969 67.502,12.207 67.47,12.438 C67.398,13.208 67.079,13.883 66.64,14.503 C66.5899382,14.5654234 66.5272306,14.6165436 66.456,14.653 C66.3932289,14.8700921 66.2338309,15.0460941 66.024,15.13 C66.008,15.146 65.984,15.162 65.969,15.186 C65.921,15.368 65.785,15.448 65.617,15.496 C65.577,15.496 65.561,15.511 65.553,15.551 C65.505,15.662 65.425,15.71 65.313,15.734 C65.25,15.765 65.178,15.774 65.138,15.844 C65.0303937,16.0103427 64.8489228,16.1143065 64.651,16.123 C64.6332648,16.1308014 64.6170225,16.1416296 64.603,16.155 C64.531,16.218 64.443,16.234 64.355,16.265 C64.275,16.361 64.155,16.361 64.044,16.385 C64.004,16.465 63.916,16.401 63.86,16.448 L63.868,16.448 C63.732,16.568 63.548,16.528 63.388,16.575 L63.365,16.568 L63.341,16.583 C63.269,16.623 63.173,16.599 63.101,16.631 L62.806,16.655 C62.558,16.71 62.303,16.647 62.056,16.695 L62.047,16.687 L62.031,16.695 C61.887,16.671 61.744,16.735 61.608,16.655 C61.568,16.655 61.528,16.647 61.496,16.647 C61.32,16.575 61.113,16.687 60.953,16.536 C60.5995942,16.4618543 60.2582905,16.3386618 59.939,16.17 C59.875,16.139 59.787,16.155 59.755,16.067 C59.635,16.004 59.507,15.94 59.388,15.877 C59.332,15.845 59.244,15.845 59.22,15.765 C59.06,15.646 58.9,15.519 58.74,15.4 C58.533,15.28 58.381,15.154 58.31,14.947 Z" id="Shape" fill="#000000" fill-rule="nonzero"></path>
            <path d="M50.275,14.058 C50.195,13.883 50.107,13.708 50.027,13.534 C49.996,13.502 49.972,13.462 49.98,13.414 C49.94,13.295 49.892,13.176 49.852,13.057 C49.788,13.001 49.828,12.922 49.804,12.858 C49.796,12.827 49.788,12.795 49.788,12.763 C49.708,12.613 49.628,12.461 49.684,12.287 C49.676,12.207 49.676,12.127 49.668,12.048 C49.628,11.945 49.676,11.826 49.62,11.723 C49.65211,11.6690855 49.65211,11.6019145 49.62,11.548 C49.7,11.302 49.588,11.048 49.668,10.801 C49.676,10.73 49.676,10.651 49.684,10.579 C49.684,10.325 49.732,10.079 49.852,9.849 C49.908,9.649 49.948,9.443 50.067,9.261 C50.027,9.149 50.115,9.086 50.171,9.014 C50.195,8.895 50.227,8.784 50.339,8.713 C50.355,8.705 50.363,8.697 50.355,8.673 C50.491,8.347 50.642,8.038 50.954,7.839 C50.97,7.815 50.994,7.799 51.01,7.775 C51.0651427,7.63715742 51.1747953,7.52822861 51.313,7.474 C51.321,7.394 51.369,7.354 51.449,7.354 C51.465,7.362 51.481,7.354 51.481,7.331 C51.553,7.18 51.697,7.101 51.848,7.045 C51.928,6.902 52.048,6.83 52.208,6.815 C52.288,6.767 52.368,6.727 52.448,6.679 C52.511,6.6 52.608,6.6 52.687,6.569 C52.8066057,6.45767046 52.9636039,6.39522799 53.127,6.394 L53.941,6.203 C54.156,6.139 54.364,5.988 54.596,6.139 L54.771,6.139 C54.955,6.02 55.131,6.036 55.315,6.147 C55.33,6.163 55.346,6.163 55.362,6.155 C55.482,6.227 55.618,6.123 55.738,6.203 C55.778,6.211 55.818,6.211 55.858,6.219 C55.921,6.203 55.985,6.227 56.041,6.259 C56.337,6.346 56.632,6.425 56.928,6.513 C57.008,6.553 57.119,6.544 57.175,6.632 C57.199,6.703 57.255,6.679 57.303,6.679 C57.335,6.719 57.399,6.695 57.415,6.751 C57.391,6.862 57.367,6.965 57.351,7.077 C57.375,7.267 57.303,7.426 57.191,7.577 C57.119,7.64 57.111,7.72 57.119,7.807 C57.096,7.91 57.119,8.037 57.016,8.109 C57.0075294,8.13733442 57.0021645,8.16650583 57,8.196 C56.976,8.308 56.976,8.426 56.896,8.522 C56.88,8.53 56.872,8.546 56.888,8.57 C56.864,8.61 56.88,8.665 56.84,8.705 C56.824,8.721 56.816,8.736 56.832,8.752 C56.784,9.014 56.824,9.308 56.536,9.475 C55.41,8.721 53.965,8.848 53.182,9.809 C52.575,10.547 52.455,11.405 52.767,12.295 C53.054,13.121 53.653,13.653 54.532,13.795 C55.259,13.915 55.929,13.716 56.576,13.327 C56.808,14.042 57.04,14.733 57.263,15.432 C57.423,15.599 57.487,15.797 57.415,16.019 C57.359,16.162 57.231,16.162 57.111,16.179 C57.056,16.21 56.976,16.17 56.936,16.249 C56.6973005,16.4441604 56.3972911,16.5486501 56.089,16.544 C55.993,16.654 55.858,16.615 55.738,16.615 C55.698,16.615 55.658,16.623 55.618,16.623 C55.546,16.671 55.458,16.639 55.378,16.663 C54.955,16.663 54.532,16.663 54.101,16.671 C54.021,16.671 53.949,16.639 53.877,16.615 C53.765,16.655 53.669,16.607 53.581,16.552 L53.557,16.536 L53.534,16.544 C53.342,16.512 53.134,16.528 52.982,16.377 L52.966,16.361 L52.943,16.361 C52.807,16.337 52.655,16.329 52.567,16.194 C52.511,16.17 52.447,16.139 52.391,16.114 C52.248,16.147 52.2,15.988 52.088,15.956 C51.968,15.876 51.848,15.789 51.728,15.71 C51.593,15.63 51.441,15.567 51.378,15.408 C51.233,15.352 51.146,15.241 51.074,15.106 C50.8967645,15.0333822 50.7656137,14.8795036 50.722,14.693 C50.6602896,14.6147296 50.5966025,14.5380383 50.531,14.463 C50.363,14.383 50.299,14.233 50.275,14.058 Z M70.577,19.014 C70.465,19.022 70.361,19.038 70.249,19.038 L0.727,19.038 C0.607,19.038 0.487,19.022 0.367,19.014 C0.407,18.871 0.503,18.807 0.663,18.824 C0.743,18.831 0.823,18.824 0.903,18.824 L70.018,18.824 C70.106,18.824 70.201,18.847 70.289,18.815 C70.481,18.775 70.537,18.871 70.577,19.014 Z M70.657,15.853 C70.649,15.869 70.641,15.893 70.633,15.908 C70.593,16.075 70.513,16.21 70.337,16.266 C70.225,16.488 70.034,16.591 69.794,16.607 C69.403,16.703 69.011,16.797 68.596,16.679 C68.4305129,16.6241037 68.2723438,16.5492169 68.125,16.456 C68.005,16.456 67.933,16.393 67.885,16.29 L67.757,16.162 C67.622,16.052 67.494,15.932 67.494,15.734 C67.398,15.686 67.43,15.583 67.398,15.504 C67.3647934,15.4736208 67.3496623,15.4282273 67.358,15.384 C67.278,15.241 67.31,15.082 67.302,14.931 C67.182,14.161 67.582,13.661 68.165,13.248 C68.2925112,13.1505286 68.4522876,13.1051335 68.612,13.121 C68.86,13.105 69.115,13.081 69.362,13.065 C69.61,13.089 69.85,13.129 70.066,13.248 C70.161,13.303 70.249,13.358 70.289,13.47 C70.537,13.597 70.681,13.812 70.769,14.074 C70.816,14.209 70.856,14.344 70.904,14.479 C70.952,14.606 70.896,14.741 70.952,14.868 L70.832,15.535 C70.8,15.67 70.76,15.773 70.657,15.853 Z" id="Shape" fill="#000000" fill-rule="nonzero"></path>
            <path d="M29.366,14.955 C30.006,14.177 30.461,13.319 30.628,12.318 C30.7991508,11.3069378 30.6884329,10.2682658 30.308,9.316 C30.2898055,9.26193088 30.2687764,9.2088574 30.245,9.157 L33.831,9.157 C33.855,9.237 33.775,9.292 33.735,9.348 L29.678,15.646 C29.622,15.734 29.59,15.845 29.486,15.9 C29.39,15.686 29.358,15.487 29.494,15.265 C29.574,15.138 29.51,15.019 29.366,14.955 Z M68.604,13.113 C67.765,13.423 67.334,14.033 67.294,14.923 C67.222,14.82 67.039,14.773 67.151,14.566 C66.919,14.756 66.687,14.828 66.44,14.653 C66.9207851,13.9887733 67.2654019,13.2359863 67.454,12.438 C67.574,12.66 67.366,12.898 67.534,13.128 C67.757,13.009 68.045,13.049 68.317,12.962 C68.444,12.922 68.54,13.002 68.604,13.112 L68.604,13.113 Z M0.152,1.501 C0.162,1.581 0.172,1.66 0.172,1.739 L0.172,16.329 C0.032,16.249 0.092,16.131 0.092,16.027 L0.092,1.811 C0.082,1.7 0.032,1.588 0.152,1.501 Z M38.806,6.386 C38.703,6.441 38.591,6.409 38.479,6.409 C35.668,6.409 32.856,6.417 30.037,6.401 C29.75,6.401 29.694,6.489 29.702,6.743 C29.726,7.212 29.71,7.688 29.71,8.236 L29.239,7.688 C29.646,7.847 29.662,7.831 29.662,7.394 C29.662,7.124 29.67,6.862 29.662,6.592 C29.654,6.425 29.678,6.37 29.878,6.37 C32.625,6.378 35.38,6.378 38.128,6.378 C38.359,6.378 38.583,6.314 38.806,6.386 Z M50.275,14.058 C50.371,14.193 50.475,14.32 50.515,14.487 C50.435,14.542 50.195,14.431 50.331,14.701 C50.371,14.781 50.139,14.781 50.139,14.916 C49.739,14.391 49.357,13.851 49.005,13.296 C49.101,13.287 49.205,13.216 49.301,13.296 C49.349,13.438 49.468,13.51 49.581,13.581 C49.668,13.637 49.74,13.692 49.771,13.796 C49.836,13.978 49.844,13.97 50.091,13.978 C50.179,13.978 50.163,14.145 50.275,14.058 Z M29.239,16.266 C29.287,16.361 29.374,16.337 29.446,16.337 L38.526,16.337 C38.543,16.337 38.566,16.329 38.583,16.329 C38.487,16.432 38.359,16.385 38.247,16.385 L30.005,16.385 C29.782,16.385 29.566,16.401 29.302,16.465 C29.454,16.512 29.542,16.535 29.638,16.568 C29.742,16.608 29.718,16.687 29.646,16.71 C29.47,16.766 29.358,16.623 29.223,16.552 C29.127,16.504 29.095,16.401 29.167,16.297 C29.175,16.282 29.215,16.282 29.239,16.266 Z M38.064,13.327 C38.184,13.526 38.199,13.629 37.896,13.621 C36.738,13.605 35.58,13.613 34.422,13.613 C34.398,13.51 34.47,13.463 34.518,13.406 C34.598,13.494 34.701,13.462 34.798,13.462 L37.752,13.462 C37.872,13.47 38.032,13.526 38.064,13.327 Z M3.458,6.632 C3.322,6.727 3.187,6.814 3.003,6.942 L3.003,6.258 C3.011,4.678 3.011,3.09 3.019,1.509 C3.115,1.596 3.075,1.716 3.075,1.819 C3.075,3.137 3.083,4.456 3.067,5.774 C3.067,6.012 3.123,6.234 3.139,6.465 C3.163,6.632 3.306,6.648 3.459,6.632 L3.458,6.632 Z M20.805,14.002 C21.085,14.383 21.364,14.757 21.643,15.138 C21.38,15.297 21.228,15.209 21.156,14.923 C21.1,14.725 21.012,14.543 20.829,14.415 C20.773,14.55 20.933,14.59 20.949,14.701 C20.669,14.526 20.605,14.185 20.805,14.002 Z M18.449,15.662 C18.752,15.384 19.048,15.106 19.351,14.828 C19.383,14.963 19.447,15.082 19.663,15.186 C19.463,15.194 19.415,15.336 19.279,15.296 C19.184,15.265 19.128,15.344 19.119,15.392 C19.032,15.837 18.752,15.773 18.449,15.662 Z M36.706,10.007 C37.026,9.515 37.345,9.014 37.664,8.522 C38.04,8.562 37.728,8.848 37.816,9.006 C37.864,9.094 37.672,9.094 37.569,9.046 C37.537,9.03 37.465,9.038 37.465,9.054 C37.409,9.244 37.129,9.435 37.145,9.499 C37.265,9.856 36.858,9.817 36.794,10.007 L36.706,10.007 Z M22.778,15.98 C23.257,16.226 23.76,16.409 24.279,16.552 C24.191,16.671 24.111,16.869 23.983,16.583 C23.943,16.496 23.848,16.543 23.8,16.543 C23.512,16.536 23.257,16.48 23.057,16.25 C23.033,16.226 22.961,16.234 22.921,16.242 C22.601,16.29 22.69,16.139 22.778,15.98 Z M26.435,6.195 C25.94,6.115 25.437,6.131 24.942,6.131 C24.966,6.1 24.998,6.068 25.014,6.036 C25.094,5.798 25.309,5.758 25.493,5.949 C25.613,6.076 25.876,6.052 26.132,5.885 C26.148,5.869 26.148,5.822 26.188,5.838 C26.212,5.845 26.236,5.901 26.228,5.909 C26.076,6.163 26.284,6.099 26.403,6.116 C26.411,6.131 26.419,6.171 26.435,6.195 Z M47.528,16.202 C47.608,16.274 47.671,16.345 47.799,16.345 C48.853,16.337 49.916,16.345 50.969,16.337 C51.026,16.337 51.098,16.353 51.114,16.274 C51.17,16.314 51.194,16.369 51.162,16.424 C51.122,16.504 51.09,16.401 51.05,16.401 C50.874,16.393 50.69,16.393 50.515,16.393 L48.486,16.393 C48.183,16.393 47.871,16.353 47.616,16.623 C47.759,16.425 47.504,16.345 47.528,16.203 L47.528,16.202 Z M70.281,13.47 C70.001,13.264 69.691,13.144 69.355,13.057 C69.578,12.962 69.842,13.129 70.065,12.962 C70.113,12.93 70.337,12.914 70.409,13.049 C70.497,13.216 70.361,13.343 70.281,13.47 Z" id="Shape" fill="#FDFDFD" fill-rule="nonzero"></path>
            <path d="M0.144,16.321 C1.038,16.361 1.941,16.345 2.835,16.329 C2.588,16.417 2.54,16.528 2.867,16.679 C2.66,16.719 2.507,16.806 2.516,16.544 C2.524,16.401 2.42,16.393 2.316,16.393 L0.646,16.393 C0.479,16.393 0.407,16.512 0.336,16.639 C0.359,16.472 0.24,16.401 0.144,16.321 Z M9.176,15.138 C9.488,14.781 9.76,14.399 10.016,13.994 C10.095,14.288 10.095,14.534 9.776,14.709 C9.568,14.829 9.48,15.13 9.176,15.138 Z M28.576,15.662 C28.839,15.424 29.103,15.194 29.366,14.955 C29.358,15.051 29.486,15.194 29.271,15.225 C29.215,15.233 29.207,15.281 29.199,15.336 C29.167,15.734 29.127,15.773 28.743,15.702 C28.6866878,15.6915223 28.6309484,15.6781715 28.576,15.662 Z M18.05,6.854 C17.706,6.695 17.37,6.544 17.027,6.386 C17.403,6.123 17.906,6.354 18.049,6.854 L18.05,6.854 Z M50.938,7.831 L50.338,8.665 C50.307,8.339 50.451,8.069 50.587,7.783 C50.642,7.664 50.762,7.712 50.842,7.68 C50.93,7.648 50.922,7.768 50.938,7.831 Z M6.669,6.258 L5.83,6.14 C5.926,5.815 6.221,5.91 6.437,5.894 C6.581,5.886 6.725,6.045 6.669,6.259 L6.669,6.258 Z M40.875,1.263 C40.691,1.501 40.515,1.739 40.332,1.978 C40.332,1.787 40.316,1.596 40.34,1.406 C40.348,1.334 40.38,1.104 40.571,1.295 C40.579,1.303 40.771,1.303 40.659,1.16 C40.627,1.112 40.675,1.096 40.707,1.08 C40.747,1.064 40.787,1.056 40.795,1.112 C40.819,1.16 40.811,1.223 40.875,1.262 L40.875,1.263 Z M67.047,9.062 C66.8264514,8.66882259 66.5781554,8.29186724 66.304,7.934 L66.448,7.863 C66.52,8.022 66.536,8.236 66.808,8.213 C66.871,8.204 67.031,8.292 66.927,8.443 C66.879,8.522 66.895,8.586 66.967,8.649 C67.095,8.776 67.103,8.911 67.047,9.062 Z M56.073,16.552 C56.353,16.456 56.64,16.353 56.92,16.258 C56.936,16.298 56.936,16.338 56.96,16.361 C57.024,16.425 57.016,16.496 57.016,16.575 C56.928,16.544 56.832,16.655 56.744,16.56 C56.632,16.448 56.624,16.472 56.536,16.615 C56.409,16.822 56.209,16.687 56.073,16.552 Z M38.894,14.971 C39.078,15.161 39.262,15.344 39.445,15.535 C39.413,15.646 39.421,15.781 39.254,15.781 C39.086,15.781 39.03,15.606 39.054,15.527 C39.11,15.297 38.83,15.177 38.894,14.971 Z M70.752,14.074 C70.6127255,13.8573037 70.4522711,13.6549771 70.273,13.47 C70.441,13.399 70.617,13.438 70.793,13.446 C70.808,13.534 70.744,13.557 70.697,13.589 C70.649,13.621 70.577,13.645 70.633,13.724 C70.657,13.756 70.697,13.796 70.72,13.796 C70.84,13.78 70.728,13.708 70.744,13.676 C70.752,13.653 70.808,13.629 70.848,13.629 C70.896,13.629 70.904,13.669 70.904,13.716 C70.912,13.851 70.976,14.026 70.752,14.074 Z M56.504,9.475 C56.672,9.261 56.656,8.975 56.8,8.752 C56.8362757,8.84595165 56.8970468,8.9284761 56.976,8.991 C57.096,9.101 57.103,9.173 56.904,9.165 C56.792,9.165 56.84,9.245 56.84,9.316 C56.832,9.555 56.728,9.602 56.504,9.476 L56.504,9.475 Z M0.136,19.133 C0.144,19.959 0.144,20.777 0.152,21.603 C0.152,21.698 0.104,21.801 0.2,21.881 C0.136,21.976 0.08,22.04 0.048,21.857 C0.016,21.651 0.08,21.452 0.08,21.245 L0.08,19.443 C0.08,19.331 0.04,19.22 0.136,19.133 Z M23.872,6.322 C23.568,6.442 23.265,6.56 22.969,6.687 C22.905,6.377 22.977,6.307 23.384,6.29 C23.544,6.282 23.704,6.314 23.872,6.322 Z M38.846,9.197 C38.686,9.475 38.519,9.753 38.359,10.039 C38.327,9.761 38.399,9.491 38.455,9.229 C38.487,9.094 38.703,9.118 38.846,9.197 Z M38.287,10.19 C38.191,10.492 38.096,10.786 38.007,11.087 C37.832,10.841 38.024,10.563 37.96,10.301 C37.936,10.245 38.128,10.095 38.287,10.19 Z M57.647,14.042 C57.847,14.328 58.054,14.614 58.254,14.892 C58.134,14.765 57.926,14.828 57.806,14.709 C57.623,14.519 57.583,14.289 57.646,14.042 L57.647,14.042 Z M28.711,7.22 C28.392,7.02 28.073,6.822 27.753,6.624 C27.985,6.576 28.184,6.695 28.353,6.799 C28.488,6.878 28.576,6.886 28.703,6.735 C28.711,6.942 28.711,7.077 28.711,7.219 L28.711,7.22 Z M9.416,7.895 C9.256,7.728 9.096,7.569 8.929,7.402 C8.961,7.378 9.001,7.362 9.025,7.339 C9.232,7.179 9.345,7.219 9.392,7.466 C9.424,7.625 9.432,7.855 9.416,7.895 Z M4.936,6.155 C4.824,6.219 4.696,6.211 4.568,6.203 C4.433,5.981 4.48,5.885 4.736,5.845 C4.856,5.83 4.968,5.853 5.119,5.925 C5.159,6.084 4.824,5.941 4.936,6.155 Z M49.013,13.287 C48.798068,13.0239826 48.6031869,12.745199 48.43,12.453 C48.542,12.422 48.638,12.613 48.758,12.477 C48.766,12.469 48.853,12.525 48.853,12.533 C48.75,12.819 49.101,13.009 49.013,13.287 Z M21.092,8.284 C20.989,8.466 20.877,8.649 20.772,8.832 C20.693,8.8 20.637,8.76 20.677,8.657 C20.701,8.601 20.717,8.546 20.733,8.49 C20.757,8.395 20.621,8.355 20.653,8.252 C20.693,8.141 20.797,8.212 20.861,8.204 C20.933,8.212 21.012,8.26 21.092,8.284 Z M54.588,6.131 C54.372,6.155 54.148,6.171 53.933,6.195 C53.981,6.1 54.228,6.052 54.005,5.893 C53.981,5.877 54.165,5.766 54.228,5.798 C54.364,5.885 54.572,5.909 54.588,6.131 Z M51.353,15.424 C51.481,15.511 51.625,15.591 51.705,15.726 C51.481,15.781 51.265,15.734 51.05,15.67 C50.898,15.622 50.818,15.543 50.778,15.384 C50.962,15.368 51.058,15.504 51.185,15.567 C51.377,15.654 51.385,15.583 51.353,15.424 Z M26.244,16.623 C26.547,16.552 26.851,16.473 27.154,16.401 C27.05,16.687 26.899,16.766 26.547,16.718 C26.443,16.703 26.339,16.655 26.244,16.623 Z M11.517,15.154 C11.717,15.329 11.924,15.495 12.124,15.67 C11.972,15.773 11.812,15.662 11.66,15.686 C11.556,15.702 11.533,15.511 11.556,15.479 C11.668,15.344 11.525,15.265 11.516,15.154 L11.517,15.154 Z M55.307,6.147 C55.123,6.147 54.947,6.139 54.763,6.139 C54.652,6.036 54.683,5.925 54.779,5.853 C54.835,5.813 54.955,5.671 55.019,5.901 C55.051,5.973 55.291,5.965 55.307,6.147 Z M39.917,4.813 C40.037,5.139 40.148,5.456 40.267,5.782 C39.933,5.607 39.797,5.234 39.917,4.813 Z M19.743,14.304 C19.894,14.026 20.046,13.748 20.198,13.462 C20.318,13.47 20.374,13.582 20.318,13.645 C20.11,13.859 20.07,14.209 19.743,14.304 Z M38.36,7.458 C38.447,7.259 38.567,7.084 38.703,6.918 C38.894,7.021 38.814,7.196 38.79,7.331 C38.766,7.49 38.623,7.411 38.527,7.411 C38.471,7.411 38.415,7.441 38.359,7.458 L38.36,7.458 Z M70.95,21.603 C70.9,20.769 70.89,19.935 70.95,19.093 L70.95,21.603 Z M20.557,9.237 C20.501,9.412 20.445,9.587 20.366,9.825 C20.2924179,9.63052899 20.2230682,9.43448276 20.158,9.237 C20.286,9.181 20.421,9.117 20.558,9.237 L20.557,9.237 Z M8.394,15.79 C8.578,15.646 8.754,15.503 8.937,15.36 C9.057,15.559 8.897,15.686 8.769,15.75 C8.657,15.797 8.617,15.892 8.529,15.956 C8.474,15.908 8.489,15.797 8.394,15.789 L8.394,15.79 Z M69.794,16.607 C69.978,16.496 70.154,16.377 70.337,16.266 C70.441,16.401 70.369,16.552 70.313,16.671 C70.257,16.798 70.137,16.671 70.058,16.639 C69.97,16.599 69.858,16.742 69.794,16.607 Z M21.771,15.233 C21.907,15.353 22.051,15.471 22.187,15.591 C22.003,15.734 21.811,15.606 21.675,15.535 C21.524,15.448 21.755,15.345 21.771,15.233 Z M13.082,6.56 L12.539,6.846 C12.683,6.711 12.355,6.496 12.579,6.417 C12.675,6.386 12.842,6.537 12.994,6.552 C13.0228421,6.55859961 13.0524407,6.56129039 13.082,6.56 Z M58.733,7.402 C58.669,7.466 58.605,7.522 58.541,7.585 C58.485,7.299 58.341,7.49 58.221,7.521 C58.15,7.537 58.086,7.704 58.014,7.553 C57.974,7.466 58.07,7.386 58.15,7.355 C58.35,7.291 58.549,7.251 58.733,7.402 Z M46.362,7.029 C46.465,6.926 46.569,6.83 46.682,6.727 C46.689,6.838 46.673,6.973 46.865,6.949 C47.009,6.934 46.961,7.053 46.953,7.109 C46.937,7.227 46.857,7.124 46.809,7.14 C46.625,7.188 46.529,6.981 46.362,7.029 Z M59.915,6.624 C59.7899919,6.72569665 59.6457959,6.8011955 59.491,6.846 C59.499,6.814 59.499,6.783 59.507,6.759 C59.571,6.639 59.332,6.481 59.507,6.433 C59.627,6.401 59.819,6.481 59.915,6.623 L59.915,6.624 Z M64.643,16.123 C64.803,16.027 64.97,15.94 65.13,15.845 C65.098,15.972 65.186,16.17 65.058,16.218 C64.938,16.266 64.738,16.321 64.643,16.123 Z M44.389,16.504 C44.533,16.448 44.676,16.401 44.82,16.345 C44.876,16.568 44.764,16.71 44.557,16.735 C44.341,16.758 44.573,16.488 44.389,16.504 Z M65.122,6.926 L64.707,6.679 C64.747,6.656 64.787,6.624 64.827,6.624 C64.922,6.616 64.874,6.378 65.01,6.497 C65.138,6.6 65.242,6.743 65.122,6.926 Z M57.167,7.569 C57.199,7.394 57.255,7.227 57.327,7.069 C57.583,7.259 57.471,7.505 57.423,7.847 C57.399,7.617 57.431,7.378 57.167,7.569 Z M12.3,15.805 C12.49,15.861 12.643,15.972 12.794,16.083 C12.754,16.107 12.707,16.123 12.667,16.147 L12.595,16.194 C12.555,16.218 12.467,16.226 12.475,16.218 C12.627,15.988 12.052,16.059 12.299,15.805 L12.3,15.805 Z M67.885,16.282 C67.989,16.305 68.053,16.377 68.125,16.448 C68.021,16.599 67.853,16.774 67.71,16.671 C67.606,16.599 67.805,16.409 67.885,16.281 L67.885,16.282 Z M12.483,6.878 C12.347,6.973 12.227,7.1 12.052,7.148 C11.9715681,7.04519608 11.9715681,6.90080392 12.052,6.798 C12.116,6.719 12.243,6.767 12.315,6.87 C12.355,6.926 12.435,6.759 12.483,6.878 Z" id="Shape" fill="#FDFDFD" fill-rule="nonzero"></path>
            <path d="M22.97,6.687 C22.706,6.847 22.466,7.037 22.187,7.156 C22.234,7.036 22.434,6.966 22.267,6.766 C22.466,6.878 22.617,6.87 22.737,6.696 C22.801,6.6 22.889,6.64 22.969,6.687 L22.97,6.687 Z M40.987,6.934 C41.138,7.037 41.178,7.132 40.979,7.235 C40.835,7.315 40.699,7.41 40.563,7.505 C40.547,7.339 40.667,7.251 40.779,7.18 C40.875,7.108 40.979,7.06 40.987,6.934 Z M11.157,14.78 C11.285,14.844 11.365,14.963 11.437,15.082 C11.365,15.162 11.309,15.297 11.165,15.178 C11.005,15.043 11.061,14.916 11.157,14.781 L11.157,14.78 Z M17.778,16.083 L18.161,15.845 C18.217,15.94 18.034,16.035 18.185,16.147 C18.241,16.187 18.113,16.242 18.057,16.257 C17.914,16.29 17.826,16.21 17.778,16.083 Z M47.687,11.39 C47.5818031,11.2881743 47.4978496,11.1664927 47.44,11.032 C47.56,11.103 47.735,10.976 47.823,11.167 C47.863,11.247 47.951,11.317 47.895,11.397 C47.847,11.477 47.759,11.357 47.687,11.389 L47.687,11.39 Z M47.631,2.581 C47.576,2.454 47.52,2.335 47.464,2.208 C47.544,2.136 47.616,2.414 47.695,2.208 C47.759,2.24 47.887,2.088 47.895,2.264 C47.895,2.335 47.983,2.502 47.767,2.478 C47.719,2.478 47.655,2.518 47.631,2.581 Z M62.79,6.131 C62.47,6.131 62.151,6.131 61.831,6.123 C61.9205657,6.04332794 62.0399666,6.00583315 62.159,6.02 C62.367,6.02 62.559,6.076 62.774,6.028 C62.942,6.004 62.806,6.092 62.79,6.131 Z" id="Shape" fill="#FDFDFD" fill-rule="nonzero"></path>
            <path d="M64.411,6.552 C64.211,6.472 64.011,6.402 63.812,6.322 C64.028,6.242 64.235,6.306 64.435,6.354 C64.595,6.386 64.427,6.481 64.411,6.552 Z" id="Path" fill="#D6D6D6"></path>
            <path d="M34.94,12.755 C35.013,12.596 35.1,12.445 35.228,12.318 C35.388,12.461 35.117,12.668 35.3,12.803 C35.165,12.914 35.069,12.739 34.94,12.755 Z M60.522,6.386 C60.338,6.457 60.162,6.536 59.979,6.608 C59.971,6.243 60.059,6.211 60.522,6.386 Z M51.114,16.274 L50.81,15.853 C50.914,15.757 51.034,15.837 51.146,15.829 C51.249,15.821 51.281,15.94 51.178,15.996 C51.042,16.076 51.209,16.202 51.114,16.274 Z M58.31,14.947 C58.461,15.082 58.62,15.201 58.725,15.377 C58.653,15.456 58.597,15.638 58.509,15.377 C58.453,15.225 58.158,15.186 58.309,14.947 L58.31,14.947 Z M3.49,16.155 C3.69,16.195 3.857,16.297 4.025,16.385 C3.802,16.575 3.625,16.583 3.538,16.258 C3.538,16.226 3.514,16.194 3.49,16.155 Z M50.706,14.717 C50.826,14.852 50.946,14.995 51.058,15.13 C50.97,15.066 50.97,15.32 50.882,15.186 C50.794,15.051 50.499,14.971 50.706,14.717 Z M51.832,7.037 C51.712,7.132 51.592,7.227 51.465,7.323 C51.401,7.243 51.481,7.156 51.457,7.061 C51.433,6.981 51.537,6.918 51.617,6.878 C51.769,6.814 51.705,7.068 51.832,7.037 Z M52.903,16.591 C52.647,16.703 52.463,16.671 52.303,16.528 C52.256,16.488 52.232,16.425 52.28,16.369 C52.328,16.321 52.367,16.369 52.407,16.401 C52.543,16.481 52.687,16.56 52.903,16.591 Z M49.844,9.832 L49.676,10.563 C49.676,10.492 49.524,10.539 49.58,10.428 C49.6722758,10.2492742 49.7137804,10.0486685 49.7,9.848 C49.7,9.729 49.788,9.769 49.844,9.832 Z M15.773,6.131 C15.478,6.131 15.174,6.131 14.879,6.123 C15.174,5.941 15.469,5.965 15.773,6.131 Z M10.015,8.776 C9.911,8.617 9.807,8.458 9.712,8.292 C10.031,8.228 10.102,8.347 10.015,8.776 Z M18.585,7.227 C18.481,7.148 18.369,7.069 18.265,6.989 C18.345,6.965 18.337,6.878 18.377,6.822 C18.409,6.767 18.497,6.727 18.521,6.782 C18.561,6.918 18.688,7.061 18.585,7.227 Z M40.332,16.162 L40.931,16.448 C40.739,16.496 40.539,16.385 40.34,16.52 C40.412,16.385 40.356,16.274 40.332,16.162 Z M70.33,16.266 C70.425,16.146 70.529,16.027 70.625,15.908 C70.736,15.956 70.776,16.123 70.76,16.155 C70.665,16.313 70.489,16.274 70.33,16.265 L70.33,16.266 Z M19.535,14.74 C19.703,14.653 19.838,14.582 19.966,14.503 C20.022,14.471 20.07,14.431 20.11,14.503 C20.15,14.566 20.102,14.622 20.054,14.653 C19.902,14.733 19.751,14.796 19.535,14.741 L19.535,14.74 Z M49.317,13.287 C49.349,13.192 49.349,13.009 49.444,13.025 C49.6013307,13.0538193 49.741625,13.1418611 49.836,13.271 C49.652,13.375 49.476,13.176 49.316,13.287 L49.317,13.287 Z M39.82,7.728 C39.757,7.95 39.541,7.958 39.405,8.078 C39.397,8.085 39.342,8.069 39.334,8.053 C39.302,7.99 39.334,7.943 39.374,7.895 C39.494,7.768 39.684,7.831 39.821,7.728 L39.82,7.728 Z M57.391,16.027 C57.391,15.821 57.271,15.638 57.239,15.44 C57.383,15.36 57.487,15.52 57.471,15.567 C57.431,15.71 57.503,15.837 57.503,15.972 C57.503,16.027 57.439,16.027 57.391,16.027 Z M17.379,16.266 C17.499,16.21 17.626,16.155 17.746,16.091 C17.73,16.274 17.371,16.409 17.714,16.655 C17.538,16.599 17.427,16.552 17.474,16.393 C17.506,16.305 17.458,16.273 17.379,16.266 Z M21.532,7.768 C21.444,7.895 21.364,8.022 21.228,8.101 C21.228,8.061 21.228,8.021 21.22,7.981 C21.172,7.681 21.212,7.648 21.532,7.768 Z M47.376,5.838 C47.464,5.678 47.544,5.512 47.631,5.353 C47.647,5.401 47.695,5.456 47.679,5.488 C47.576,5.734 47.799,5.544 47.839,5.623 C47.727,5.774 47.519,5.743 47.376,5.838 Z M46.018,7.513 C46.13,7.521 46.202,7.482 46.282,7.403 C46.314,7.37 46.274,7.235 46.394,7.299 C46.497,7.355 46.465,7.458 46.449,7.537 C46.434,7.593 46.386,7.696 46.282,7.648 C46.186,7.601 46.106,7.553 46.018,7.513 Z M10.071,13.883 C10.151,13.708 10.223,13.526 10.311,13.319 C10.414,13.454 10.454,13.581 10.494,13.709 C10.271,13.565 10.207,13.827 10.071,13.883 Z M66.016,15.13 L66.448,14.653 C66.552,14.781 66.44,14.86 66.392,14.955 C66.248,14.987 66.216,15.241 66.016,15.13 Z M57.95,8.252 C57.9324006,8.32289037 57.8897856,8.38503729 57.83,8.427 C57.758,8.316 57.718,8.443 57.663,8.451 C57.543,8.458 57.559,8.371 57.543,8.3 C57.527,8.196 57.559,8.18 57.655,8.204 L57.95,8.252 Z M15.079,16.68 L16.133,16.631 C15.789,16.828 15.43,16.672 15.079,16.681 L15.079,16.68 Z M10.981,8.228 C10.941,8.379 10.846,8.49 10.75,8.601 C10.734,8.522 10.622,8.491 10.734,8.363 C10.83,8.236 10.79,8.196 10.981,8.228 Z M46.194,9.269 C46.074,9.102 45.962,8.935 45.843,8.769 C46.05,8.871 46.33,8.927 46.193,9.269 L46.194,9.269 Z M63.86,16.44 C63.908,16.377 63.98,16.385 64.044,16.377 L64.116,16.472 C64.164,16.528 64.316,16.488 64.259,16.639 C64.211,16.75 64.132,16.679 64.059,16.695 C63.908,16.718 63.996,16.631 63.988,16.575 C63.972,16.512 63.956,16.425 63.86,16.44 Z M67.518,10.674 C67.478,10.476 67.446,10.277 67.406,10.079 C67.518,10.023 67.606,10.071 67.574,10.182 C67.526,10.341 67.606,10.516 67.518,10.674 Z M41.674,0.675 C41.482,0.81 41.298,0.945 41.107,1.08 C41.162,0.866 41.378,0.794 41.49,0.627 C41.562,0.508 41.602,0.667 41.674,0.675 Z M14.631,6.14 C14.4767295,6.19147733 14.3145499,6.21517789 14.152,6.21 C14.128,6.163 14.096,6.108 14.072,6.06 C14.24,6.243 14.496,5.814 14.632,6.14 L14.631,6.14 Z M67.486,15.726 L67.749,16.155 C67.622,16.139 67.542,16.051 67.446,15.988 C67.318,15.884 67.334,15.789 67.486,15.726 Z M10.63,13.986 C10.694,14.042 10.726,14.106 10.75,14.185 C10.662,14.256 10.678,14.335 10.718,14.423 C10.758,14.518 10.75,14.598 10.614,14.661 C10.574,14.423 10.614,14.201 10.63,13.986 Z M59.388,6.918 C59.3208067,6.99353621 59.2354461,7.05067275 59.14,7.084 C59.1,6.997 58.948,6.91 59.06,6.806 C59.188,6.696 59.276,6.886 59.388,6.918 Z M61.935,5.909 C61.831,5.973 61.712,5.853 61.624,5.957 C61.584,6.004 61.504,6.052 61.472,5.997 C61.44,5.949 61.512,5.845 61.416,5.797 C61.4749267,5.76096178 61.5490733,5.76096178 61.608,5.797 C61.712,5.861 61.848,5.797 61.935,5.909 Z M64.347,16.266 C64.4149562,16.2023505 64.5022594,16.1632753 64.595,16.155 C64.515,16.321 64.563,16.48 64.627,16.655 C64.539,16.591 64.387,16.583 64.443,16.409 C64.467,16.305 64.427,16.274 64.347,16.266 Z M66.024,7.64 C65.937,7.577 65.841,7.513 65.784,7.41 C65.841,7.339 65.944,7.227 66,7.275 C66.104,7.362 66.096,7.513 66.024,7.64 Z M46.378,15.432 C46.489,15.321 46.601,15.217 46.737,15.146 C46.657,15.296 46.689,15.511 46.497,15.606 C46.442,15.566 46.513,15.424 46.377,15.432 L46.378,15.432 Z M65.61,15.495 C65.729,15.392 65.84,15.289 65.96,15.185 C66.032,15.527 65.992,15.559 65.61,15.495 Z M19.12,7.704 L18.872,7.458 C18.968,7.426 18.968,7.228 19.112,7.315 C19.247,7.395 19.088,7.482 19.096,7.561 L19.12,7.704 Z M39.118,8.824 C39.054,8.967 38.958,9.086 38.846,9.197 C38.886,9.062 38.894,8.935 38.958,8.8 C39.094,8.482 39.062,8.856 39.118,8.824 Z M11.397,7.752 C11.293,7.862 11.197,7.974 11.093,8.093 C11.101,7.895 11.245,7.743 11.253,7.537 C11.301,7.617 11.293,7.727 11.397,7.752 Z M47.088,6.258 C47.168,6.139 47.256,6.02 47.336,5.901 C47.328,6.06 47.456,6.219 47.336,6.378 C47.368,6.108 47.128,6.378 47.088,6.258 Z M49.684,12.279 C49.716,12.438 49.756,12.596 49.788,12.755 C49.6417172,12.6693718 49.5530201,12.5114756 49.556,12.342 C49.596,12.318 49.636,12.295 49.684,12.279 Z M60.937,16.512 C61.121,16.552 61.297,16.583 61.48,16.623 C61.344,16.687 61.193,16.623 61.04,16.703 C60.841,16.798 60.945,16.599 60.937,16.512 Z M52.966,16.393 L53.518,16.56 C53.486,16.56 53.454,16.552 53.43,16.568 C53.182,16.766 53.07,16.583 52.966,16.393 Z M41.17,16.52 C41.29,16.552 41.418,16.56 41.53,16.623 C41.442,16.75 41.314,16.743 41.194,16.71 C41.074,16.679 41.186,16.583 41.17,16.52 Z M27.993,16.035 C28.128,15.956 28.264,15.869 28.408,15.789 C28.328,15.916 28.344,16.139 28.104,16.115 C28.064,16.107 28.033,16.059 27.993,16.035 Z M52.192,6.806 C52.072,6.886 51.952,6.966 51.832,7.036 C51.8,6.727 51.8,6.727 52.192,6.806 Z M36.091,10.968 C36.1625261,10.8118968 36.2568939,10.667312 36.371,10.539 C36.474,10.809 36.355,10.936 36.091,10.969 L36.091,10.968 Z M45.483,0.413 C45.3739098,0.403677111 45.2692968,0.365353534 45.18,0.302 C45.22,0.254 45.252,0.206 45.291,0.167 C45.347,0.111 45.403,0.024 45.483,0.103 C45.563,0.191 45.451,0.191 45.411,0.238 C45.315,0.342 45.483,0.349 45.483,0.413 Z" id="Shape" fill="#FDFDFD" fill-rule="nonzero"></path>
            <path d="M10.742,14.177 C10.854,14.312 10.965,14.439 11.022,14.597 C10.982,14.606 10.973,14.725 10.902,14.63 C10.8010876,14.5002727 10.7449483,14.3413282 10.742,14.177 Z M35.708,11.556 C35.772,11.461 35.835,11.357 35.899,11.262 C35.979,11.334 36.027,11.397 35.955,11.508 C35.883,11.635 35.803,11.612 35.708,11.556 Z M13.857,16.504 C13.9623881,16.4889012 14.0697199,16.5115719 14.16,16.568 C14.0887978,16.5682698 14.0213912,16.6001414 13.976,16.655 C13.904,16.735 13.816,16.774 13.745,16.687 C13.649,16.567 13.857,16.583 13.857,16.504 Z M62.04,16.687 C62.287,16.667 62.542,16.658 62.79,16.639 C62.55,16.802 62.295,16.725 62.04,16.687 Z M12.954,16.155 C13.082,16.21 13.202,16.265 13.329,16.321 C13.138,16.496 13.026,16.448 12.954,16.155 Z M57.51,8.999 C57.455,9.109 57.407,9.213 57.351,9.324 C57.351,9.253 57.111,9.292 57.255,9.213 C57.367,9.157 57.231,8.816 57.511,8.999 L57.51,8.999 Z M46.729,10.031 C46.6185274,9.92728342 46.5289167,9.80338991 46.465,9.666 C46.633,9.729 46.921,9.713 46.729,10.031 Z M49.66,10.794 L49.612,11.54 C49.572,11.35 49.668,11.143 49.532,10.952 C49.476,10.849 49.612,10.842 49.66,10.794 Z M43.327,0.135 C43.143,0.167 42.967,0.199 42.784,0.238 C42.927,0.008 43.135,0.088 43.327,0.135 Z M40.22,7.76 C40.1171388,7.87921411 39.9955469,7.98087845 39.86,8.061 C39.933,7.903 39.893,7.617 40.22,7.76 Z M46.849,1.318 C46.793,1.263 46.729,1.208 46.673,1.152 C46.713,1.017 46.841,1.017 46.905,1.064 C47.048,1.168 46.865,1.231 46.849,1.318 Z M43.59,16.679 C43.758,16.607 43.926,16.591 44.101,16.575 C44.133,16.639 44.165,16.718 44.046,16.71 C43.894,16.71 43.742,16.695 43.59,16.679 Z M7.563,6.552 C7.483,6.521 7.396,6.481 7.316,6.449 C7.476,6.369 7.627,6.29 7.819,6.299 C7.787,6.441 7.483,6.299 7.563,6.552 Z M10.422,9.237 C10.398,9.3 10.374,9.356 10.327,9.491 C10.239,9.284 10.183,9.149 10.119,9.006 C10.263,9.038 10.311,9.173 10.422,9.236 L10.422,9.237 Z M16.253,6.195 C16.189,6.203 16.125,6.203 16.069,6.163 C16.093,6.076 16.037,6.004 16.005,5.917 C16.237,5.893 16.245,6.044 16.253,6.195 Z M38.95,6.497 L38.926,6.386 C38.942,6.378 38.966,6.37 38.982,6.362 C39.062,6.338 39.126,6.242 39.222,6.322 C39.254,6.346 39.286,6.386 39.254,6.417 C39.19,6.481 39.094,6.497 39.006,6.489 C38.99,6.497 38.966,6.497 38.95,6.497 Z M46.194,0.794 C46.0971244,0.730467495 45.9984157,0.669775007 45.898,0.612 C45.962,0.604 46.034,0.588 46.098,0.58 C46.346,0.548 46.298,0.66 46.194,0.794 Z M57.096,16.186 C57.199,16.131 57.296,16.076 57.399,16.027 C57.399,16.075 57.535,16.091 57.447,16.155 C57.343,16.234 57.223,16.329 57.096,16.186 Z M7.675,16.202 L7.987,16.035 C7.971,16.139 8.098,16.123 8.138,16.202 C7.98734133,16.2496287 7.82565867,16.2496287 7.675,16.202 Z M8.162,6.846 C8.018,6.766 7.882,6.696 7.739,6.616 C7.787,6.616 7.835,6.6 7.859,6.552 C8.026,6.592 8.13,6.687 8.162,6.846 Z M8.929,7.204 C8.761,7.005 8.857,6.91 9.017,6.822 C9.089,6.91 9.033,6.957 8.977,6.997 C8.913,7.053 8.993,7.132 8.929,7.204 Z M11.892,7.299 C11.82,7.379 11.756,7.466 11.644,7.497 C11.636,7.442 11.501,7.394 11.596,7.339 C11.668,7.291 11.772,7.14 11.892,7.299 Z M51.05,7.569 C51.018,7.466 50.85,7.656 50.842,7.466 C50.834,7.243 51.05,7.434 51.074,7.283 C51.138,7.418 51.042,7.49 51.05,7.569 Z M50.45,15.329 C50.339,15.225 50.267,15.099 50.187,14.971 C50.411,14.987 50.539,15.082 50.451,15.329 L50.45,15.329 Z M49.564,12.843 C49.42,12.66 49.397,12.469 49.516,12.263 C49.42,12.469 49.556,12.652 49.564,12.843 Z M34.598,13.295 C34.6260805,13.1990955 34.6817175,13.1135536 34.758,13.049 C34.765,13.089 34.805,13.136 34.789,13.16 C34.725,13.264 34.957,13.271 34.861,13.359 C34.765,13.43 34.677,13.327 34.598,13.295 Z M47.264,10.794 C47.192,10.754 47.16,10.69 47.136,10.619 C47.208,10.587 47.232,10.484 47.336,10.492 C47.344,10.602 47.456,10.73 47.264,10.794 Z M48.35,12.342 C48.2467283,12.2371728 48.1606673,12.1166874 48.095,11.985 C48.222,12.08 48.502,12.056 48.35,12.342 Z M63.38,16.568 C63.533,16.496 63.7,16.464 63.86,16.44 C63.772,16.726 63.557,16.568 63.38,16.568 Z M42.009,16.697 L42.879,16.757 C42.592,16.737 42.297,16.827 42.009,16.697 Z M47.871,3.661 C47.839,3.455 47.799,3.248 47.767,3.041 C47.903,3.232 47.959,3.439 47.871,3.661 Z M53.11,6.394 C52.974,6.473 52.83,6.536 52.671,6.568 C52.687,6.528 52.711,6.488 52.727,6.449 C52.847,6.346 52.967,6.282 53.11,6.394 Z M52.551,16.218 C52.687,16.258 52.815,16.298 52.927,16.385 C52.719,16.52 52.615,16.409 52.551,16.218 Z M70.657,15.853 C70.712,15.749 70.76,15.646 70.817,15.543 C70.96,15.749 70.904,15.853 70.657,15.853 Z M7.324,16.591 C7.14,16.591 6.964,16.687 6.717,16.679 C6.957,16.568 7.14,16.536 7.324,16.591 Z M63.565,6.012 C63.469,6.004 63.349,6.084 63.301,5.957 C63.293,5.941 63.341,5.885 63.365,5.869 C63.501,5.806 63.477,5.989 63.565,6.012 Z M38.59,16.568 C38.67,16.575 38.79,16.48 38.814,16.639 C38.822,16.663 38.79,16.726 38.766,16.726 C38.646,16.758 38.606,16.679 38.591,16.568 L38.59,16.568 Z M45.355,8.061 C45.084,7.839 45.411,7.839 45.475,7.744 C45.555,7.894 45.363,7.942 45.355,8.061 Z M56.992,8.109 C57.024,8.006 57.064,7.903 57.096,7.807 C57.111,7.918 57.359,8.117 56.992,8.109 Z M46.729,6.671 C46.777,6.6 46.817,6.529 46.897,6.489 C46.945,6.529 47.072,6.529 47.033,6.6 C46.977,6.711 46.849,6.72 46.729,6.671 Z M40.076,2.51 L39.98,2.772 C39.972,2.677 39.805,2.629 39.9,2.502 C39.956,2.43 40.02,2.478 40.076,2.51 Z M5.447,16.685 C5.638,16.667 5.822,16.657 6.014,16.639 C5.822,16.769 5.638,16.759 5.447,16.685 Z M37.937,11.747 L37.937,12.461 C37.847,12.215 37.837,11.977 37.937,11.747 Z M47.935,11.747 C47.895,11.683 47.847,11.627 47.807,11.564 C47.911,11.484 48.023,11.548 48.143,11.5 C48.111,11.643 47.951,11.635 47.935,11.747 Z M61.592,16.631 C61.736,16.623 61.879,16.615 62.015,16.671 C61.871,16.726 61.72,16.814 61.592,16.631 Z M67.536,11.739 L67.536,11.024 C67.636,11.262 67.636,11.5 67.536,11.739 Z M45.411,16.075 C45.459,16.019 45.515,15.98 45.595,15.988 C45.611,16.051 45.715,16.123 45.603,16.178 C45.539,16.21 45.443,16.186 45.411,16.075 Z M50.163,9.006 C50.163,9.102 50.107,9.173 50.059,9.253 C49.924,9.229 49.916,9.102 49.939,9.038 C49.972,8.928 50.091,9.102 50.163,9.006 Z M46.977,10.38 C46.9528239,10.3475168 46.9314155,10.3130626 46.913,10.277 C46.985,10.174 47.088,10.134 47.233,10.103 C47.176,10.261 47.025,10.277 46.977,10.381 L46.977,10.38 Z M41.099,1.08 C41.051,1.136 41.019,1.207 40.923,1.207 C40.859,1.088 40.939,0.993 40.931,0.794 C41.027,0.929 40.947,1.088 41.099,1.08 Z M53.565,16.575 C53.6677594,16.5675507 53.7704968,16.5897642 53.861,16.639 C53.717,16.845 53.645,16.719 53.565,16.575 Z M40.524,6.243 C40.595,6.314 40.659,6.393 40.675,6.497 C40.364,6.577 40.475,6.394 40.524,6.243 Z M55.338,5.954 C55.45,5.809 55.546,5.928 55.658,5.886 L55.658,5.979 C55.546,5.979 55.442,5.971 55.338,5.954 Z M38.191,7.688 C38.247,7.608 38.303,7.529 38.351,7.45 C38.639,7.76 38.247,7.617 38.191,7.688 Z M52.072,15.98 C52.2,15.98 52.288,16.067 52.375,16.139 C52.335,16.234 52.28,16.297 52.2,16.17 C52.16,16.107 52.112,16.043 52.072,15.98 Z M51.058,15.13 C51.178,15.21 51.281,15.313 51.361,15.432 C51.13,15.456 51.081,15.305 51.058,15.13 Z M66.384,14.955 C66.544,14.971 66.591,15.066 66.584,15.233 C66.424,15.186 66.416,15.066 66.384,14.955 Z M20.653,13.7 C20.701,13.804 20.757,13.907 20.805,14.01 C20.741,13.97 20.669,13.93 20.605,13.883 C20.469,13.78 20.557,13.74 20.653,13.7 Z M59.739,16.051 C59.803,16.075 59.875,16.091 59.923,16.155 C59.835,16.17 59.779,16.329 59.675,16.226 C59.603,16.146 59.715,16.106 59.739,16.051 Z M47.376,2.041 C47.312,1.938 47.248,1.835 47.176,1.731 C47.208,1.716 47.248,1.691 47.28,1.676 C47.2931778,1.78291549 47.3442724,1.88155636 47.424,1.954 C47.528,2.049 47.408,2.025 47.376,2.041 Z M47.695,2.208 C47.615,2.16 47.535,2.105 47.615,2.001 C47.631,1.986 47.695,1.978 47.719,1.994 C47.863,2.081 47.655,2.129 47.695,2.208 Z M55.722,16.623 C55.826,16.552 55.953,16.568 56.073,16.552 C55.993,16.742 55.866,16.718 55.722,16.623 Z M46.69,15.718 C46.53,15.765 46.442,15.813 46.362,15.718 C46.354,15.71 46.378,15.662 46.394,15.646 C46.497,15.566 46.554,15.678 46.689,15.718 L46.69,15.718 Z M45.635,8.474 C45.587,8.411 45.547,8.347 45.499,8.284 C45.539,8.276 45.555,8.149 45.611,8.252 C45.651,8.316 45.795,8.387 45.635,8.474 Z M24.207,5.87 C24.311,5.83 24.383,5.845 24.431,5.94 C24.439,5.957 24.415,6.004 24.399,6.004 C24.287,6.028 24.263,5.933 24.207,5.869 L24.207,5.87 Z M58.549,7.577 C58.485,7.672 58.421,7.767 58.301,7.807 C58.238,7.577 58.397,7.577 58.549,7.577 Z M47.344,15.948 C47.4259439,16.0139129 47.487068,16.1021261 47.52,16.202 C47.184,16.313 47.368,16.059 47.344,15.948 Z M14.695,16.64 C14.815,16.64 14.943,16.62 15.055,16.688 C14.927,16.746 14.799,16.776 14.695,16.639 L14.695,16.64 Z M3.13,15.924 C3.243,15.94 3.322,16.012 3.402,16.083 C3.274,16.091 3.082,16.21 3.131,15.924 L3.13,15.924 Z M24.814,16.639 C24.958,16.631 25.094,16.631 25.237,16.679 C25.094,16.726 24.942,16.798 24.814,16.639 Z M19.846,8.641 L19.655,8.355 C19.695,8.355 19.743,8.355 19.783,8.347 C19.823,8.427 19.846,8.522 19.958,8.522 C19.926,8.562 19.886,8.602 19.846,8.642 L19.846,8.641 Z M46.074,15.662 C46.1371941,15.581642 46.2197809,15.5186696 46.314,15.479 C46.274,15.591 46.298,15.789 46.074,15.662 Z M45.858,16.234 C45.803,16.21 45.755,16.178 45.763,16.107 C45.763,16.083 45.819,16.051 45.851,16.051 C45.914,16.051 45.954,16.099 45.946,16.171 C45.938,16.211 45.906,16.234 45.858,16.234 Z" id="Shape" fill="#FDFDFD" fill-rule="nonzero"></path>
            <path d="M50.323,8.705 C50.267,8.808 50.211,8.903 50.155,9.006 C50.011,8.8 50.195,8.76 50.323,8.705 Z M57.399,6.743 C57.359,6.719 57.319,6.695 57.287,6.671 C57.359,6.608 57.423,6.544 57.495,6.473 C57.607,6.632 57.423,6.656 57.399,6.743 Z M13.513,6.394 C13.377,6.473 13.233,6.529 13.082,6.568 C13.178,6.401 13.345,6.394 13.513,6.394 Z M51.305,7.466 L51.002,7.768 C51.018,7.704 51.034,7.632 51.058,7.569 C51.138,7.537 51.193,7.434 51.305,7.466 Z M57.231,7.839 C57.399,7.926 57.415,8.014 57.303,8.149 C57.279,8.038 57.263,7.959 57.231,7.839 Z M41.154,0.62 C41.027,0.675 40.939,0.723 40.779,0.802 C40.899,0.619 40.995,0.596 41.154,0.619 L41.154,0.62 Z M22.418,16.178 C22.29,16.218 22.202,16.186 22.123,16.068 C22.274,16.035 22.323,16.186 22.418,16.178 Z M50.61,15.567 C50.5634473,15.5398284 50.5315217,15.4932243 50.523,15.44 C50.594,15.408 50.531,15.329 50.594,15.265 C50.61,15.376 50.754,15.448 50.61,15.567 Z M11.077,7.474 C11.189,7.291 11.285,7.267 11.453,7.291 C11.317,7.355 11.229,7.394 11.077,7.474 Z M55.722,6.195 C55.5946566,6.2071637 55.4662035,6.19076543 55.346,6.147 C55.45,6.131 55.554,6.107 55.658,6.092 C55.77,6.076 55.746,6.139 55.722,6.195 Z M67.238,15.829 L67.422,16.115 C67.254,16.107 67.198,16.012 67.238,15.829 Z M56.808,8.705 C56.8,8.649 56.808,8.601 56.856,8.57 C56.872,8.65 57.096,8.586 56.984,8.744 C56.912,8.856 56.872,8.704 56.808,8.704 L56.808,8.705 Z M28.4,15.79 C28.44,15.718 28.504,15.686 28.576,15.662 C28.544,15.757 28.52,15.852 28.488,15.956 C28.416,15.908 28.488,15.813 28.4,15.789 L28.4,15.79 Z M18.09,6.274 C18.01,6.425 17.93,6.434 17.818,6.322 C17.906,6.306 17.978,6.298 18.089,6.274 L18.09,6.274 Z M44.756,0.214 C44.621,0.191 44.476,0.159 44.341,0.135 C44.485,0.127 44.645,0.055 44.756,0.215 L44.756,0.214 Z M65.306,15.734 C65.386,15.67 65.466,15.614 65.546,15.551 C65.569,15.749 65.457,15.765 65.306,15.734 Z M0.256,1.191 C0.208,1.207 0.152,1.207 0.136,1.263 C0.056,1.255 -0.016,1.207 0.04,1.136 C0.12,1.048 0.192,1.144 0.256,1.191 Z M52.671,6.56 C52.599,6.624 52.527,6.671 52.431,6.671 C52.455,6.505 52.543,6.489 52.671,6.561 L52.671,6.56 Z M3.802,16.687 C3.69,16.703 3.618,16.71 3.546,16.718 C3.546,16.703 3.538,16.678 3.546,16.663 C3.61,16.568 3.69,16.591 3.802,16.687 Z" id="Shape" fill="#FDFDFD" fill-rule="nonzero"></path>
            <path d="M67.238,16.21 C67.127,16.107 67.087,16.02 67.118,15.892 C67.19,15.98 67.246,16.059 67.238,16.21 Z M19.543,8.18 C19.4714764,8.13453639 19.4156287,8.06821724 19.383,7.99 C19.559,7.95 19.599,8.022 19.543,8.18 Z M36.426,10.428 C36.466,10.365 36.514,10.309 36.554,10.245 C36.562,10.309 36.674,10.349 36.634,10.412 C36.578,10.516 36.498,10.412 36.426,10.428 Z M40.755,6.592 C40.827,6.672 40.907,6.735 40.923,6.854 C40.827,6.791 40.651,6.783 40.755,6.592 Z M4.992,16.631 C5.127,16.623 5.263,16.614 5.382,16.682 C5.255,16.64 5.103,16.835 4.992,16.632 L4.992,16.631 Z M39.853,15.86 C39.948,15.9 40.028,15.956 40.1,16.027 C39.964,16.043 39.805,16.091 39.853,15.861 L39.853,15.86 Z M49.804,12.85 C49.86,12.906 49.868,12.978 49.852,13.05 C49.756,13.041 49.676,13.001 49.684,12.89 C49.684,12.803 49.796,12.954 49.804,12.85 Z M45.843,8.768 C45.7671585,8.70471595 45.709233,8.62265477 45.675,8.53 C45.827,8.538 45.93,8.586 45.843,8.768 Z M57.694,8.641 C57.6810435,8.71561769 57.6416374,8.7830696 57.583,8.831 C57.583,8.776 57.447,8.768 57.519,8.673 C57.575,8.609 57.631,8.601 57.694,8.641 Z M59.196,15.742 C59.268,15.749 59.332,15.782 59.364,15.852 C59.308,15.877 59.252,15.932 59.188,15.869 C59.148,15.821 59.18,15.781 59.196,15.742 Z M64.036,16.377 C64.1279633,16.3115528 64.2349105,16.2702869 64.347,16.257 C64.291,16.425 64.18,16.432 64.036,16.377 Z M61.017,5.904 C61.113,5.834 61.177,5.913 61.264,5.948 C61.161,5.983 61.081,6 61.017,5.904 Z M47.767,4.948 C47.7568963,4.86453845 47.7767407,4.78019967 47.823,4.71 C47.975,4.837 47.831,4.884 47.767,4.948 Z M40.388,6.036 C40.476,6.084 40.5,6.171 40.531,6.251 C40.491,6.171 40.212,6.251 40.388,6.036 Z M67.502,9.539 C67.39,9.459 67.334,9.427 67.286,9.388 C67.302,9.364 67.318,9.324 67.334,9.324 C67.43,9.316 67.438,9.396 67.502,9.539 Z M47.68,5.186 C47.695,5.123 47.687,5.051 47.751,5.004 C47.759,5.067 47.887,5.019 47.847,5.107 C47.823,5.178 47.751,5.187 47.679,5.187 L47.68,5.186 Z M47.831,4.654 C47.823,4.567 47.823,4.487 47.871,4.416 C47.903,4.503 47.999,4.599 47.831,4.654 Z M25.629,16.69 C25.749,16.62 25.884,16.64 26.012,16.64 C25.892,16.73 25.764,16.76 25.629,16.69 Z M40.148,16.051 L40.276,16.131 C40.252,16.178 40.228,16.258 40.164,16.226 C40.068,16.186 40.156,16.115 40.148,16.051 Z M39.86,8.061 C39.797,8.117 39.74,8.181 39.677,8.236 C39.589,8.022 39.741,8.053 39.861,8.061 L39.86,8.061 Z M40.26,2.089 C40.252,2.176 40.22,2.256 40.148,2.303 C40.092,2.193 40.14,2.121 40.26,2.089 Z M47.28,1.676 C47.288,1.612 47.288,1.525 47.392,1.541 C47.408,1.541 47.432,1.588 47.424,1.612 C47.408,1.692 47.36,1.723 47.28,1.676 Z M61.177,6.203 C61.129,6.251 61.065,6.258 60.993,6.251 C61.033,6.203 61.033,6.108 61.121,6.116 C61.145,6.116 61.161,6.171 61.177,6.203 Z M51.026,16.44 C50.946,16.52 50.898,16.56 50.85,16.6 C50.842,16.575 50.81,16.544 50.818,16.528 C50.842,16.432 50.922,16.456 51.026,16.44 Z M3.85,6.441 C3.77,6.481 3.69,6.513 3.61,6.552 C3.634,6.394 3.714,6.362 3.85,6.442 L3.85,6.441 Z M21.907,7.402 C21.835,7.49 21.763,7.592 21.643,7.625 C21.667,7.474 21.747,7.395 21.907,7.402 Z M6.836,16.504 C6.94,16.472 7.044,16.432 7.148,16.401 C7.164,16.432 7.188,16.472 7.204,16.504 L6.836,16.504 Z M52.727,6.441 C52.639,6.433 52.583,6.386 52.599,6.298 C52.599,6.282 52.671,6.258 52.695,6.266 C52.791,6.306 52.655,6.394 52.727,6.441 Z M27.681,16.178 C27.706,16.17 27.731,16.162 27.756,16.147 C27.756,16.226 27.838,16.313 27.706,16.401 L27.681,16.178 Z M27.45,6.489 C27.3540746,6.48013543 27.2625835,6.44444004 27.186,6.386 C27.282,6.394 27.418,6.33 27.45,6.489 Z M3.454,16.305 C3.512,16.377 3.559,16.44 3.502,16.528 C3.378,16.472 3.445,16.393 3.454,16.305 Z M41.897,0.548 C41.8477667,0.605593393 41.780414,0.644735508 41.706,0.659 C41.674,0.453 41.793,0.509 41.897,0.548 Z M13.737,6.322 C13.673,6.394 13.585,6.386 13.505,6.402 C13.561,6.314 13.617,6.227 13.737,6.322 Z M53.94,5.987 C53.845,6.031 53.781,6.04 53.71,5.917 C53.805,5.952 53.877,5.97 53.94,5.987 Z M16.788,6.314 C16.74,6.322 16.692,6.322 16.66,6.274 C16.66,6.234 16.604,6.164 16.676,6.155 C16.812,6.131 16.724,6.275 16.788,6.315 L16.788,6.314 Z M61.656,6.14 L61.36,6.19 C61.448,6.133 61.536,6.026 61.656,6.14 Z M6.19,16.634 C6.28057664,16.5863221 6.38311515,16.566162 6.485,16.576 C6.389,16.617 6.309,16.734 6.19,16.634 Z M56.025,6.25 C55.961129,6.26057163 55.8956355,6.24625611 55.842,6.21 C55.85,6.18 55.842,6.123 55.89,6.123 C55.953,6.131 55.985,6.203 56.025,6.251 L56.025,6.25 Z M60.49,16.718 C60.474,16.703 60.442,16.695 60.434,16.671 C60.418,16.623 60.45,16.599 60.49,16.591 C60.506,16.591 60.546,16.615 60.546,16.631 C60.562,16.671 60.538,16.695 60.49,16.718 Z M55.362,16.684 C55.434,16.631 55.522,16.631 55.602,16.639 C55.538,16.763 55.458,16.754 55.362,16.684 Z M26.97,6.322 C26.907,6.33 26.835,6.33 26.787,6.274 C26.787,6.227 26.795,6.187 26.795,6.124 C26.867,6.194 26.922,6.258 26.97,6.322 Z M63.213,6.195 C63.141,6.203 63.069,6.203 63.013,6.155 C63.093,6.075 63.181,5.973 63.213,6.195 Z M70.712,18.823 C70.689,18.839 70.665,18.855 70.641,18.855 C70.593,18.855 70.585,18.815 70.593,18.775 C70.601,18.76 70.633,18.744 70.649,18.728 C70.665,18.76 70.681,18.775 70.712,18.823 Z M5.375,6.072 C5.495,6.002 5.575,6.022 5.686,6.052 C5.566,6.122 5.486,6.102 5.375,6.072 Z M67.286,9.658 C67.2242612,9.56814718 67.1857785,9.46438114 67.174,9.356 C67.214,9.372 67.246,9.396 67.286,9.412 L67.286,9.658 Z M56.864,8.522 C56.872,8.402 56.904,8.292 56.968,8.196 C56.984,8.323 57.008,8.451 56.864,8.522 Z M39.854,3.701 L39.854,4.058 C39.764,3.939 39.764,3.82 39.854,3.701 Z M20.302,13.16 L20.35,12.994 C20.43,13.065 20.461,13.136 20.445,13.232 C20.39,13.208 20.35,13.184 20.302,13.16 Z M38.212,7.958 C38.272,8.038 38.272,8.101 38.152,8.181 C38.182,8.077 38.192,8.014 38.212,7.958 Z M49.98,13.406 C50.027,13.438 50.035,13.478 50.027,13.526 C49.972,13.51 49.9,13.589 49.876,13.518 C49.852,13.47 49.924,13.43 49.98,13.406 Z M19.623,14.479 C19.639,14.423 19.663,14.375 19.711,14.352 C19.743,14.368 19.799,14.392 19.799,14.392 C19.775,14.495 19.687,14.479 19.623,14.479 Z" id="Shape" fill="#FDFDFD" fill-rule="nonzero"></path>
            <path d="M70.951,14.876 L70.891,14.486 C71.011,14.606 70.931,14.741 70.951,14.876 Z" id="Path" fill="#D6D6D6"></path>
            <path d="M45.643,7.625 C45.690216,7.55108658 45.7605249,7.49483948 45.843,7.465 C45.811,7.561 45.819,7.704 45.643,7.625 Z M51.441,7.347 C51.393,7.387 51.353,7.426 51.305,7.466 C51.297,7.41 51.185,7.402 51.233,7.346 C51.289,7.276 51.369,7.315 51.441,7.346 L51.441,7.347 Z M22.418,15.757 C22.498,15.797 22.586,15.837 22.642,15.917 C22.522,15.917 22.434,15.884 22.418,15.757 Z M47.344,6.378 C47.288,6.441 47.296,6.544 47.16,6.584 C47.2,6.481 47.216,6.394 47.344,6.378 Z M29.438,15.972 C29.446,16.067 29.382,16.122 29.318,16.178 C29.198,16.019 29.326,16.004 29.438,15.972 Z M8.034,16.012 L8.218,15.9 C8.21,16.02 8.162,16.075 8.034,16.012 Z M8.53,16.178 C8.506,16.162 8.442,16.162 8.458,16.115 C8.466,16.091 8.522,16.075 8.554,16.067 C8.57,16.067 8.609,16.107 8.609,16.123 C8.609,16.163 8.578,16.186 8.529,16.178 L8.53,16.178 Z M57.16,6.624 C57.08,6.584 56.992,6.544 56.912,6.504 C57.008,6.513 57.143,6.457 57.159,6.624 L57.16,6.624 Z M47.76,2.986 C47.7145766,2.94026297 47.6934424,2.87574807 47.703,2.812 C47.743,2.859 47.951,2.859 47.759,2.986 L47.76,2.986 Z M19.783,8.347 C19.767,8.292 19.719,8.237 19.807,8.204 C19.822,8.196 19.847,8.212 19.854,8.22 C19.902,8.3 19.83,8.316 19.783,8.347 Z M63.085,16.624 C63.157,16.559 63.245,16.559 63.325,16.568 C63.261,16.643 63.189,16.708 63.085,16.624 Z M18.129,6.48 C18.197,6.505 18.187,6.544 18.187,6.584 C18.187,6.608 18.177,6.656 18.129,6.624 C18.099,6.608 18.089,6.576 18.089,6.544 C18.08,6.521 18.109,6.497 18.129,6.481 L18.129,6.48 Z M39.677,8.236 C39.629,8.308 39.589,8.387 39.493,8.403 C39.501,8.283 39.565,8.228 39.677,8.236 Z M37.944,12.755 C37.992,12.811 37.992,12.875 37.984,12.938 C37.92,12.882 37.824,12.843 37.944,12.755 Z M34.813,12.93 L34.941,12.755 C35.005,12.89 34.933,12.93 34.813,12.93 Z M7.867,6.56 C7.819,6.529 7.755,6.529 7.739,6.465 C7.763,6.457 7.795,6.441 7.819,6.449 C7.915,6.441 7.883,6.505 7.867,6.56 Z M19.966,8.522 C19.958,8.474 19.902,8.442 19.942,8.395 C19.942,8.387 20.014,8.419 20.03,8.443 C20.078,8.522 20.014,8.522 19.966,8.522 Z M26.73,6.258 C26.667,6.258 26.595,6.266 26.547,6.218 C26.643,6.092 26.683,6.195 26.731,6.258 L26.73,6.258 Z M29.247,7.696 C29.183,7.64 29.119,7.576 29.063,7.521 C29.183,7.513 29.247,7.577 29.247,7.696 Z M3.123,1.399 C3.258,1.38 3.306,1.399 3.33,1.455 C3.33,1.464 3.306,1.492 3.306,1.492 C3.258,1.473 3.211,1.445 3.123,1.399 Z M23.392,16.622 C23.321,16.652 23.265,16.672 23.217,16.572 C23.289,16.532 23.345,16.562 23.392,16.622 Z M11.564,7.569 C11.54,7.656 11.469,7.704 11.397,7.752 C11.405,7.64 11.453,7.585 11.564,7.569 Z M60.146,16.546 C60.21,16.496 60.274,16.496 60.346,16.546 C60.274,16.596 60.21,16.606 60.146,16.546 Z M66.448,7.87 C66.432,7.815 66.384,7.76 66.472,7.728 C66.488,7.72 66.512,7.736 66.52,7.744 C66.56,7.824 66.496,7.839 66.448,7.871 L66.448,7.87 Z M13.57,16.592 C13.53,16.642 13.473,16.701 13.433,16.659 C13.393,16.609 13.473,16.584 13.513,16.576 C13.529,16.567 13.553,16.584 13.569,16.592 L13.57,16.592 Z M59.156,16.107 C59.132,16.099 59.116,16.099 59.1,16.099 C59.1139464,16.06722 59.1328482,16.0378547 59.156,16.012 C59.172,15.996 59.22,15.988 59.22,16.027 C59.212,16.051 59.172,16.075 59.156,16.107 Z" id="Shape" fill="#FDFDFD" fill-rule="nonzero"></path>
            <path d="M7.563,11.365 C7.555,12.175 7.323,12.89 6.669,13.415 C5.702,14.185 4.321,13.995 3.618,12.978 C2.987,12.056 2.923,11.071 3.466,10.087 C3.897,9.3 4.8,8.864 5.591,8.983 C6.541,9.133 7.284,9.817 7.507,10.746 C7.555,10.944 7.579,11.151 7.563,11.366 L7.563,11.365 Z M13.066,11.413 C13.05,9.952 14.112,8.863 15.43,8.943 C16.5,9.006 17.427,9.96 17.506,11.087 C17.554,11.834 17.411,12.533 16.899,13.113 C16.34,13.748 15.622,13.994 14.799,13.788 C13.881,13.565 13.377,12.93 13.146,12.048 C13.0865104,11.8417739 13.05952,11.6275372 13.066,11.413 Z M27.641,11.373 C27.617,12.175 27.378,12.898 26.715,13.406 C25.8263512,14.1024681 24.5447797,13.9650461 23.824,13.096 C23.113,12.255 23.017,10.905 23.6,9.983 C24.08,9.229 24.958,8.793 25.764,8.959 C26.723,9.157 27.306,9.769 27.569,10.699 C27.625,10.913 27.649,11.143 27.641,11.373 Z M42.736,13.939 C41.314,13.939 40.428,12.573 40.986,11.239 C41.33,10.42 42.049,9.944 42.744,9.467 C42.84,9.396 42.864,9.475 42.896,9.531 C43.622,10.571 44.341,11.619 45.068,12.66 C45.108,12.723 45.18,12.771 45.084,12.858 C44.413,13.446 43.686,13.938 42.736,13.938 L42.736,13.939 Z M42.68,4.329 C42.672,3.606 42.96,3.169 43.447,2.986 C43.926,2.804 44.453,2.931 44.748,3.296 C45.092,3.709 45.116,4.226 44.836,4.71 C44.565,5.17 44.166,5.48 43.734,5.782 C43.686,5.814 43.638,5.853 43.582,5.79 C43.127,5.33 42.688,4.853 42.68,4.329 Z M64.467,11.334 C64.443,12.024 64.283,12.668 63.788,13.184 C62.814,14.193 61.233,14.042 60.474,12.866 C59.843,11.906 59.899,10.563 60.618,9.729 C61.161,9.094 61.855,8.792 62.694,8.991 C63.628,9.213 64.172,9.841 64.404,10.746 C64.451,10.936 64.483,11.135 64.467,11.334 Z" id="Shape" fill="#FEFEFE" fill-rule="nonzero"></path>
        </g>
    </g>
</svg>
