<svg width="64px" height="20px" viewBox="0 0 64 20" version="1.1" xmlns="http://www.w3.org/2000/svg" xmlns:xlink="http://www.w3.org/1999/xlink">
    <g id="Page-1" stroke="none" stroke-width="1" fill="none" fill-rule="evenodd">
        <g id="chegg" fill="#F07D00" fill-rule="nonzero">
            <path d="M11.025,10.303 C10.147,10.443 9.771,11.578 9.144,12.173 C8.485,12.876 7.179,12.876 6.374,12.443 C4.817,11.503 4.765,9.622 4.797,7.87 C4.797,6.346 5.424,4.757 6.688,4.086 C8.402,3.33 9.53,5.049 10.596,6.108 C11.662,6.508 13.073,6.605 14.045,5.805 C14.358,5.145 14.128,4.314 13.835,3.73 C13.365,2.627 12.279,1.384 11.245,0.951 C9.091,-0.205 6.019,-0.205 3.845,0.951 C2.206,1.871 0.868,3.73 0.45,5.568 C-0.333,8.822 0.158,12.411 2.467,14.724 C4.662,16.844 8.361,16.984 11.026,15.881 C12.708,15.027 14.192,13.135 14.286,11.103 C13.826,9.741 12.133,10.368 11.026,10.303 L11.025,10.303 Z M25.341,5.438 C23.972,3.859 21.799,4.151 20.127,4.768 C18.517,4.314 19.457,1.989 18.747,0.8 C17.869,-0.032 15.905,-0.119 15.205,1.005 C14.839,4.649 15.09,8.541 15.006,12.314 C15.194,13.438 14.766,14.908 15.686,15.686 C16.616,16.119 17.817,16.032 18.736,15.503 C19.343,13.741 18.988,11.503 19.228,9.546 L19.876,8.281 C20.283,8.032 20.775,7.805 21.266,8.032 C22.823,8.93 22.216,11.114 22.353,12.8 C22.373,13.881 22.217,15.038 23.063,15.762 C23.8435914,15.9931736 24.668824,16.0302473 25.467,15.87 C25.979,15.708 26.365,15.103 26.417,14.551 C26.292,11.427 27.076,7.827 25.341,5.438 Z M29.354,5.438 C27.514,6.876 26.95,9.211 27.254,11.622 C27.598,13.514 28.978,15.427 30.744,15.882 C33.284,16.53 36.429,16.422 38.038,13.946 C38.247,13.492 38.195,12.843 37.693,12.551 C36.355,11.795 35.07,12.757 33.9,13.276 C33.168,13.556 32.343,13.33 31.893,12.638 C31.643,12.141 31.893,11.514 32.363,11.341 C34.537,10.703 36.868,12.508 38.707,10.865 C39.355,9.373 38.654,7.827 37.965,6.616 C35.948,3.838 31.831,3.503 29.354,5.438 Z M34.203,8.486 C33.733,8.886 32.897,9.136 32.343,8.67 C31.903,8.53 31.914,7.946 32.071,7.622 C32.541,6.984 33.733,6.984 34.171,7.568 C34.245,7.827 34.433,8.195 34.203,8.486 Z M50.693,4.962 C49.658,4.205 48.237,4.649 47.203,4.984 C45.436,4.335 42.834,3.708 41.309,5.384 C40.003,6.67 39.605,8.464 39.699,10.422 C39.72,11.654 40.107,12.822 40.818,13.752 C41.215,14.27 41.706,14.746 42.302,15.082 C43.472,15.978 44.945,15.308 46.231,15.135 C46.68,15.222 47.046,15.805 46.805,16.335 C46.513,17.027 45.802,17.395 45.144,17.232 C43.994,16.357 42.228,16.335 40.974,17.005 C40.87,17.405 40.724,17.773 40.974,18.205 C41.121,18.345 41.257,18.475 41.392,18.627 C43.462,20.357 46.544,20.065 48.843,19.308 C49.93,18.768 50.713,17.557 50.933,16.346 C51.215,12.973 51.257,9.308 51.1,5.827 L50.693,4.962 Z M46.116,11.914 C45.625,12.205 45.081,12.076 44.59,11.805 C44.14,11.265 43.775,10.649 43.848,9.784 C43.796,9.081 44.068,8.508 44.506,8.011 C45.05,7.546 45.969,7.491 46.471,8.097 C46.931,8.595 47.056,9.243 47.119,9.935 C47.067,10.703 46.743,11.503 46.116,11.914 Z M62.888,4.962 C61.853,4.205 60.432,4.649 59.398,4.984 C57.653,4.335 55.03,3.708 53.504,5.384 C52.198,6.67 51.801,8.464 51.894,10.422 C51.915,11.654 52.302,12.822 53.013,13.752 C53.41,14.27 53.901,14.746 54.497,15.082 C55.667,15.978 57.14,15.308 58.426,15.135 C58.886,15.222 59.241,15.805 59.001,16.335 C58.708,17.027 57.997,17.395 57.339,17.232 C56.189,16.357 54.423,16.335 53.169,17.005 C53.065,17.405 52.919,17.773 53.169,18.205 C53.316,18.345 53.452,18.475 53.587,18.627 C55.657,20.357 58.739,20.065 61.038,19.308 C62.125,18.768 62.908,17.557 63.128,16.346 C63.41,12.973 63.452,9.308 63.296,5.827 L62.888,4.962 Z M58.321,11.914 C57.831,12.205 57.287,12.076 56.796,11.805 C56.336,11.265 55.981,10.649 56.054,9.784 C56.001,9.081 56.274,8.508 56.712,8.011 C57.255,7.546 58.185,7.491 58.677,8.097 C59.137,8.595 59.262,9.243 59.325,9.935 C59.262,10.703 58.938,11.503 58.321,11.914 Z" id="Shape"></path>
        </g>
    </g>
</svg>
