<svg width="70px" height="24px" viewBox="0 0 70 24" version="1.1" xmlns="http://www.w3.org/2000/svg" xmlns:xlink="http://www.w3.org/1999/xlink">
    <g id="Page-1" stroke="none" stroke-width="1" fill="none" fill-rule="evenodd">
        <g id="popin" fill="#333E81" fill-rule="nonzero">
            <path d="M60.808,7.123 C61.943,6.116 63.026,5.29 64.426,5.135 C67.464,4.825 69.736,6.684 69.868,9.729 C69.974,12.052 69.868,14.374 69.894,16.697 C69.894,17.6 69.392,18.167 68.6,18.167 C67.728,18.194 67.517,17.445 67.517,16.697 L67.517,10.117 C67.491,7.767 65.958,6.684 63.66,7.407 C61.389,8.103 60.65,9.058 60.65,11.407 L60.65,16.181 C60.65,16.568 60.596,16.955 60.49,17.316 C60.306,17.91 59.857,18.296 59.223,18.219 C58.642,18.142 58.325,17.652 58.325,17.084 C58.2985833,13.5140489 58.2985833,9.94395113 58.325,6.374 C58.325,5.806 58.668,5.342 59.249,5.264 C59.804,5.187 60.253,5.523 60.464,6.064 C60.57,6.374 60.649,6.684 60.808,7.123 Z M15.215,11.794 C15.03,8.516 17.619,5.135 21.581,4.954 C25.121,4.8 27.868,6.968 28.661,10.452 C28.766,10.942 28.792,11.562 28.106,11.716 C27.419,11.871 27.208,11.355 27.076,10.813 C26.626,9.213 25.781,7.923 24.196,7.174 C22.4,6.323 20.102,6.554 18.649,7.845 C17.011,9.29 16.377,11.071 17.038,13.187 C17.117,13.419 17.196,13.677 17.328,13.91 C17.618,14.4 17.566,14.89 17.064,15.123 C16.509,15.381 16.087,15.123 15.796,14.555 C15.347,13.652 15.109,12.723 15.216,11.794 L15.215,11.794 Z M54.045,11.716 C54.045,13.446 54.019,15.148 54.045,16.877 C54.072,17.6 53.808,18.117 53.095,18.194 C52.408,18.297 51.985,17.806 51.747,17.187 C51.697967,17.0727366 51.67083,16.9502807 51.667,16.826 C51.667,13.446 51.642,10.039 51.694,6.658 C51.694,5.91 52.17,5.265 52.989,5.265 C53.86,5.265 54.072,5.91 54.072,6.71 C54.019,8.387 54.045,10.065 54.045,11.716 Z M21.977,18.348 C20.974,18.426 20.075,18.168 19.151,17.832 C18.464,17.6 18.2,17.187 18.438,16.568 C18.649,15.974 19.204,16.103 19.653,16.258 C22.533,17.368 24.777,16.645 26.494,14.142 C26.838,13.652 27.314,13.445 27.842,13.806 C28.37,14.168 28.079,14.658 27.842,15.071 C26.521,17.265 24.54,18.297 21.977,18.348 Z M47.838,18.065 C46.887,18.194 46.464,17.6 46.411,16.723 C46.358,15.819 46.94,15.277 47.838,15.226 C48.842,15.174 49.449,15.768 49.449,16.671 C49.449,17.523 48.894,18.091 47.838,18.065 Z" id="Shape"></path>
            <path d="M24.46,11.639 C24.355,12.49 24.725,13.703 23.51,13.703 C22.4,13.703 22.664,12.516 22.664,11.742 C22.664,10.916 22.426,9.677 23.536,9.652 C24.672,9.626 24.355,10.89 24.46,11.639 Z M21.053,11.742 L21.053,12.645 C21.053,13.11 21.106,13.677 20.445,13.755 C19.758,13.832 19.521,13.29 19.495,12.775 C19.4459292,12.0089358 19.4633276,11.2400604 19.547,10.477 C19.6,10.065 19.811,9.574 20.366,9.677 C20.868,9.755 21.079,10.117 21.053,10.632 L21.053,11.742 Z M53.042,2.761 C52.355,2.555 51.721,2.297 51.694,1.471 C51.642,0.619 52.249,0.155 52.962,0.103 C53.675,0.052 54.283,0.516 54.336,1.342 C54.362,2.194 53.728,2.503 53.042,2.762 L53.042,2.761 Z M12.706,9.703 C11.543,5.523 6.974,3.768 3.408,6.271 C2.853,6.658 2.694,6.658 2.404,6.039 C2.166,5.523 1.664,5.135 1.03,5.29 C0.396,5.445 0.158,5.987 0.158,6.58 L0.158,22.813 C0.158,23.458 0.475,23.923 1.136,23.974 C1.849,24.026 2.298,23.639 2.456,22.968 C2.536,22.684 2.509,22.374 2.509,22.065 L2.509,16.49 C4.359,18.22 6.313,18.71 8.506,18.116 C11.464,17.342 13.868,13.858 12.706,9.703 Z M10.725,12.077 C10.619,13.987 9.483,15.51 7.74,16.052 C6.102,16.542 3.857,15.897 2.88,14.632 C2.192,13.755 2.72,12.722 2.536,11.922 C2.589,10.452 2.113,8.981 3.698,8.103 C5.125,7.303 6.604,6.916 8.215,7.561 C9.8,8.181 10.83,10.013 10.725,12.077 Z M35.106,6.142 C34.63,6.452 34.26,6.71 33.943,5.935 C33.733,5.419 33.257,5.135 32.675,5.29 C32.015,5.445 31.83,5.935 31.83,6.58 C31.857,11.923 31.857,17.239 31.83,22.58 C31.83,23.252 31.962,23.82 32.702,23.974 C33.547,24.129 33.864,23.484 34.102,22.89 C34.234,22.529 34.208,22.142 34.208,21.755 L34.208,16.877 C35.528,17.471 36.532,18.245 37.853,18.374 C41.551,18.684 44.536,15.587 44.615,11.768 C44.721,7.148 39.913,3.071 35.105,6.142 L35.106,6.142 Z M40.072,15.819 C38.091,16.723 36.321,16.103 34.657,14.916 C34.234,14.606 34.207,14.219 34.207,13.781 L34.207,10.684 C34.207,8.671 35.397,7.432 37.483,7.226 C39.993,6.968 42.502,8.542 42.133,11.716 C42.264,13.446 41.842,14.994 40.072,15.819 Z" id="Shape"></path>
        </g>
    </g>
</svg>
