<svg width="100px" height="22px" viewBox="0 0 100 22" version="1.1" xmlns="http://www.w3.org/2000/svg" xmlns:xlink="http://www.w3.org/1999/xlink">
    <g id="Page-1" stroke="none" stroke-width="1" fill="none" fill-rule="evenodd">
        <g id="sojern">
            <path d="M89.962,8.154 L89.962,8.754 C89.962,11.843 89.952,14.932 89.972,18.021 C89.972,18.405 89.875,18.536 89.472,18.508 C88.9288265,18.4752524 88.3841735,18.4752524 87.841,18.508 C87.466,18.527 87.361,18.424 87.361,18.049 C87.38,15.756 87.371,13.462 87.371,11.169 C87.371,8.809 87.38,6.459 87.361,4.1 C87.361,3.754 87.447,3.642 87.811,3.66 C88.388,3.689 88.964,3.689 89.539,3.66 C89.875,3.642 90.058,3.773 90.239,4.026 C92.495,7.19 94.75,10.345 97.015,13.5 C97.102,13.621 97.198,13.743 97.37,13.977 L97.37,13.369 C97.37,10.298 97.38,7.227 97.36,4.147 C97.36,3.763 97.466,3.623 97.87,3.651 C98.407,3.679 98.954,3.689 99.501,3.651 C99.914,3.623 100,3.773 100,4.147 C99.99,7.677 99.99,11.197 99.99,14.726 C99.99,15.849 99.98,16.973 100,18.096 C100,18.396 99.923,18.517 99.597,18.499 C99.0213428,18.4708984 98.4446572,18.4708984 97.869,18.499 C97.505,18.517 97.294,18.386 97.092,18.096 C94.875,14.988 92.649,11.88 90.432,8.781 C90.298,8.613 90.172,8.444 89.962,8.154 Z M44.894,3.492 C48.8,3.502 51.631,6.029 52.054,9.849 C52.207,11.215 52.121,12.563 51.718,13.874 C50.854,16.674 48.484,18.452 45.489,18.602 C44.357,18.658 43.253,18.555 42.189,18.18 C40.048,17.422 38.704,15.915 38.052,13.818 C37.524,12.114 37.505,10.373 37.956,8.641 C38.81,5.439 41.449,3.491 44.894,3.491 L44.894,3.492 Z M86.353,18.49 L83.455,18.49 C83.205,18.49 83.129,18.302 83.033,18.162 C82.265,17.001 81.507,15.822 80.729,14.66 C80.3873274,14.1498559 80.0089956,13.6652436 79.597,13.21 C79.002,12.545 78.263,12.226 77.361,12.226 C77.015,12.226 76.901,12.301 76.901,12.657 C76.919,14.436 76.901,16.214 76.919,17.993 C76.919,18.368 76.843,18.527 76.429,18.489 C75.8863096,18.4516188 75.3416904,18.4516188 74.799,18.489 C74.395,18.517 74.319,18.368 74.329,18.012 C74.347,15.999 74.338,13.986 74.338,11.974 C74.338,9.352 74.348,6.731 74.328,4.11 C74.328,3.745 74.415,3.623 74.808,3.632 C76.344,3.679 77.879,3.576 79.405,3.707 C81.305,3.867 82.841,4.952 83.359,6.497 C84.012,8.472 83.321,10.251 81.478,11.281 C81.296,11.384 81.065,11.431 81.363,11.683 C82.236,12.404 82.86,13.34 83.474,14.277 C83.934,14.969 84.376,15.681 84.846,16.364 C85.316,17.057 85.806,17.722 86.353,18.489 L86.353,18.49 Z M62.38,11.056 C62.38,8.781 62.39,6.497 62.37,4.222 C62.37,3.792 62.447,3.642 62.937,3.642 C65.509,3.67 68.09,3.66 70.662,3.642 C71.065,3.642 71.248,3.717 71.209,4.147 C71.1754225,4.61439773 71.1754225,5.08360227 71.209,5.551 C71.229,5.889 71.104,5.963 70.768,5.963 C69.012,5.945 67.246,5.973 65.489,5.945 C65.029,5.935 64.942,6.085 64.952,6.497 C64.981,7.48 64.981,8.463 64.952,9.446 C64.942,9.802 65.067,9.886 65.412,9.886 C67.112,9.867 68.8,9.886 70.499,9.867 C70.883,9.857 70.999,9.97 70.969,10.335 C70.94,10.766 70.931,11.206 70.969,11.646 C70.999,12.039 70.902,12.18 70.451,12.17 C68.801,12.142 67.159,12.18 65.509,12.142 C65.029,12.132 64.923,12.282 64.942,12.722 C64.972,13.706 64.981,14.689 64.942,15.672 C64.923,16.102 65.077,16.177 65.48,16.177 C67.303,16.158 69.127,16.177 70.95,16.158 C71.315,16.158 71.42,16.261 71.401,16.608 C71.372,17.076 71.372,17.544 71.401,18.012 C71.421,18.358 71.315,18.462 70.951,18.462 C69.031,18.442 67.111,18.452 65.191,18.452 L62.985,18.452 C62.303,18.452 62.38,18.527 62.38,17.843 L62.38,11.056 Z M35.413,7.555 C35.058,7.255 34.779,6.993 34.482,6.769 C33.436,5.982 32.274,5.57 30.95,5.879 C30.374,6.01 29.856,6.282 29.683,6.89 C29.501,7.499 29.779,7.986 30.202,8.407 C30.624,8.837 31.152,9.147 31.67,9.455 C32.543,9.97 33.464,10.41 34.251,11.065 C35.671,12.245 36.286,13.725 35.883,15.531 C35.509,17.216 34.05,18.424 32.207,18.601 C30.5913998,18.7718808 28.9672617,18.3678822 27.62,17.46 C27.39,17.3 27.284,17.141 27.284,16.851 C27.304,15.896 27.294,14.951 27.294,13.958 C27.524,14.033 27.61,14.23 27.726,14.37 C28.743,15.578 29.962,16.42 31.651,16.364 C32.811,16.327 33.628,15.531 33.531,14.557 C33.484,14.108 33.253,13.734 32.956,13.406 C32.524,12.929 31.996,12.591 31.449,12.264 C30.576,11.74 29.693,11.253 28.877,10.634 C26.583,8.894 26.977,6.226 28.177,4.924 C29.232,3.782 30.595,3.417 32.121,3.483 C33.1948807,3.52528666 34.2396295,3.84425712 35.154,4.409 C35.345,4.522 35.451,4.643 35.451,4.887 C35.403,5.739 35.413,6.6 35.413,7.555 Z M58.685,9.68 C58.685,11.44 58.695,13.2 58.675,14.96 C58.675,15.297 58.618,15.643 58.541,15.98 C58.177,17.516 57.101,18.433 55.451,18.602 C54.635,18.686 53.829,18.602 53.042,18.349 C52.812,18.274 52.706,18.18 52.716,17.928 C52.736,17.348 52.736,16.776 52.716,16.196 C52.706,15.934 52.774,15.868 53.042,15.971 C53.5641733,16.1728349 54.1247426,16.2558442 54.683,16.214 C55.509,16.158 55.931,15.784 56.065,14.988 C56.142,14.538 56.161,14.089 56.152,13.64 C56.152,10.476 56.162,7.311 56.142,4.147 C56.142,3.717 56.267,3.614 56.679,3.642 C57.159,3.679 57.639,3.679 58.119,3.642 C58.589,3.604 58.743,3.726 58.733,4.212 C58.695,6.038 58.723,7.864 58.723,9.68 L58.685,9.68 Z" id="Shape" fill="#FF6600" fill-rule="nonzero"></path>
            <path d="M11.219,12.386 C11.0350281,11.4285405 10.8556927,10.4701959 10.681,9.511 C10.307,7.461 9.942,5.411 9.568,3.351 C9.539,3.211 9.491,3.08 9.578,2.949 C10.134,2.013 10.691,1.067 11.276,0.075 C11.862,1.058 12.409,1.985 12.966,2.911 C13.033,3.033 13.023,3.146 13.004,3.267 C12.4460219,6.31182098 11.8926879,9.35749119 11.344,12.404 C11.296,12.394 11.257,12.394 11.219,12.386 Z M0.077,11.047 C0.95,10.551 1.775,10.073 2.61,9.624 C2.927,9.455 3.09,9.24 3.186,8.894 C3.954,6.226 5.701,4.4 8.33,3.36 C8.685,3.22 8.79,3.313 8.848,3.65 C8.925,4.137 9.031,4.633 9.155,5.11 C9.213,5.345 9.145,5.429 8.925,5.522 C6.689,6.515 5.413,8.19 5.173,10.596 C4.866,13.564 7.14,16.429 10.211,16.925 C13.321,17.43 16.248,15.68 17.159,12.768 C18.061,9.866 16.612,6.814 13.733,5.56 C13.426,5.429 13.321,5.298 13.426,4.97 C13.56,4.52 13.666,4.062 13.724,3.603 C13.772,3.219 13.944,3.238 14.223,3.35 C16.881,4.38 18.618,6.234 19.395,8.911 C19.491,9.239 19.645,9.445 19.952,9.604 C20.787,10.054 21.612,10.531 22.495,11.027 C21.603,11.533 20.768,12.019 19.923,12.469 C19.635,12.619 19.491,12.806 19.395,13.124 C18.503,16.139 16.497,18.076 13.417,18.947 C13.1420197,19.0080492 12.9072695,19.185846 12.774,19.434 C12.304,20.267 11.804,21.082 11.276,21.962 C10.768,21.1 10.269,20.286 9.798,19.462 C9.645,19.182 9.443,19.041 9.127,18.947 C6.065,18.077 4.06,16.147 3.177,13.152 C3.081,12.825 2.917,12.628 2.62,12.459 C1.785,12.029 0.97,11.551 0.077,11.046 L0.077,11.047 Z" id="Path-2" fill="#666666"></path>
            <path d="M40.374,11.066 C40.394,9.792 40.643,8.566 41.401,7.489 C43.051,5.159 46.708,5.149 48.369,7.48 C49.741,9.409 49.76,12.676 48.397,14.623 C46.679,17.076 42.745,16.926 41.209,14.361 C40.605,13.341 40.403,12.236 40.374,11.066 Z M76.92,7.883 C76.92,7.34 76.939,6.787 76.91,6.244 C76.9,5.926 77.015,5.842 77.322,5.86 C77.956,5.889 78.599,5.87 79.232,5.963 C80.269,6.132 80.922,6.843 80.922,7.854 C80.922,8.903 80.298,9.634 79.261,9.82 C78.58,9.942 77.889,9.895 77.207,9.914 C76.967,9.924 76.91,9.811 76.919,9.605 C76.929,9.043 76.919,8.463 76.919,7.883 L76.92,7.883 Z" id="Shape" fill="#FFFFFF" fill-rule="nonzero"></path>
        </g>
    </g>
</svg>
